<svg width="46" height="46" viewBox="0 0 46 46" fill="none" xmlns="http://www.w3.org/2000/svg">
<path d="M7.86169 23.989L20.4398 11.4109C20.5749 11.2758 21.6531 10.1976 23.3594 9.61401C25.7399 8.8507 28.1664 9.47889 30.0984 11.4109C32.0749 13.3429 32.6586 15.7234 31.8952 18.1039C31.3562 19.8116 30.2335 20.9789 30.0984 21.114L16.5772 34.6351C14.2413 36.9711 8.40075 39.9812 3.01012 34.6351C-2.33594 29.2891 0.718748 23.404 3.01012 21.114L17.5202 6.55933C18.0593 6.02026 18.9132 6.02026 19.4522 6.55933C19.9913 7.09839 19.9913 7.95226 19.4522 8.49133L4.98669 23.046C4.76244 23.2257 0.224249 27.9421 4.98669 32.7046C9.614 37.3319 14.1507 33.1991 14.6452 32.7046L28.1664 19.1375C28.1664 19.1375 28.9297 18.3741 29.2891 17.296C29.739 15.8585 29.4242 14.6007 28.1664 13.3429C25.4711 10.6476 22.8649 12.893 22.3718 13.3429L9.79369 25.8765C9.34375 26.3264 9.03037 27.0897 9.79369 27.853C10.557 28.6163 11.2757 28.257 11.7257 27.853L20.4412 19.1375C20.9803 18.643 21.8787 18.643 22.3732 19.1375C22.9123 19.6765 22.9123 20.575 22.3732 21.114L13.6577 29.7836C12.4444 30.9523 9.97337 31.8953 7.86312 29.7836C5.70687 27.6719 6.64844 25.1563 7.86169 23.989Z" fill="white"/>
</svg>
