<svg width="636" height="528" viewBox="0 0 636 528" fill="none" xmlns="http://www.w3.org/2000/svg">
<g clip-path="url(#clip0_26_74)">
<path d="M418.399 0H233.588C204.844 0 181.542 23.2808 181.542 51.9991V473.939C181.542 502.657 204.844 525.938 233.588 525.938H418.399C447.143 525.938 470.444 502.657 470.444 473.939V51.9991C470.444 23.2808 447.143 0 418.399 0Z" fill="black"/>
<path d="M465.57 52.0026V473.939C465.556 486.435 460.581 498.414 451.738 507.25C442.894 516.085 430.904 521.056 418.398 521.07H233.59C221.083 521.056 209.093 516.085 200.25 507.25C191.406 498.414 186.432 486.435 186.417 473.939V52.0026C186.432 39.5072 191.406 27.5277 200.25 18.6921C209.093 9.85653 221.083 4.88632 233.59 4.87186H257.756V13.2125C257.756 16.9885 259.258 20.6097 261.93 23.2797C264.603 25.9497 268.227 27.4498 272.006 27.45H379.981C383.76 27.4498 387.385 25.9497 390.057 23.2797C392.73 20.6097 394.231 16.9885 394.231 13.2125V4.87186H418.398C430.904 4.88632 442.894 9.85653 451.738 18.6921C460.581 27.5277 465.556 39.5072 465.57 52.0026Z" fill="white"/>
<path d="M180.213 106.693C179.273 106.692 178.372 106.318 177.708 105.654C177.043 104.99 176.67 104.09 176.668 103.151V96.0678C176.668 95.1285 177.042 94.2276 177.707 93.5634C178.371 92.8992 179.273 92.5261 180.213 92.5261C181.153 92.5261 182.055 92.8992 182.72 93.5634C183.385 94.2276 183.758 95.1285 183.758 96.0678V103.151C183.757 104.09 183.383 104.99 182.719 105.654C182.054 106.318 181.153 106.692 180.213 106.693Z" fill="#3F3D56"/>
<path d="M180.213 143.014C179.273 143.013 178.372 142.639 177.708 141.975C177.043 141.311 176.67 140.411 176.668 139.472V119.974C176.668 119.035 177.042 118.134 177.707 117.47C178.371 116.805 179.273 116.432 180.213 116.432C181.153 116.432 182.055 116.805 182.72 117.47C183.385 118.134 183.758 119.035 183.758 119.974V139.472C183.757 140.411 183.383 141.311 182.719 141.975C182.054 142.639 181.153 143.013 180.213 143.014Z" fill="#3F3D56"/>
<path d="M180.213 172.214C179.273 172.213 178.372 171.839 177.708 171.175C177.043 170.511 176.67 169.611 176.668 168.672V149.174C176.668 148.234 177.042 147.334 177.707 146.669C178.371 146.005 179.273 145.632 180.213 145.632C181.153 145.632 182.055 146.005 182.72 146.669C183.385 147.334 183.758 148.234 183.758 149.174V168.672C183.757 169.611 183.383 170.511 182.719 171.175C182.054 171.839 181.153 172.213 180.213 172.214Z" fill="#3F3D56"/>
<path d="M470.887 156.276C469.947 156.275 469.046 155.902 468.382 155.238C467.717 154.574 467.343 153.673 467.342 152.734V105.158C467.342 104.219 467.716 103.318 468.381 102.654C469.045 101.989 469.947 101.616 470.887 101.616C471.827 101.616 472.729 101.989 473.394 102.654C474.058 103.318 474.432 104.219 474.432 105.158V152.734C474.431 153.673 474.057 154.574 473.393 155.238C472.728 155.902 471.827 156.275 470.887 156.276Z" fill="#3F3D56"/>
<path d="M333.608 16.2437H306.136C305.548 16.2437 304.985 16.0105 304.569 15.5953C304.154 15.1802 303.92 14.6172 303.92 14.0301C303.92 13.4431 304.154 12.88 304.569 12.4649C304.985 12.0498 305.548 11.8166 306.136 11.8166H333.608C334.196 11.8166 334.759 12.0498 335.175 12.4649C335.59 12.88 335.824 13.4431 335.824 14.0301C335.824 14.6172 335.59 15.1802 335.175 15.5953C334.759 16.0105 334.196 16.2437 333.608 16.2437Z" fill="white"/>
<path d="M347.787 15.801C348.766 15.801 349.56 15.0081 349.56 14.0301C349.56 13.0521 348.766 12.2593 347.787 12.2593C346.808 12.2593 346.015 13.0521 346.015 14.0301C346.015 15.0081 346.808 15.801 347.787 15.801Z" fill="white"/>
<path d="M560.746 503.818C561.393 503.841 562.031 503.665 562.575 503.314C563.119 502.963 563.542 502.453 563.786 501.854C564.03 501.254 564.084 500.595 563.94 499.964C563.796 499.333 563.462 498.761 562.982 498.327C562.9 498.011 562.84 497.785 562.758 497.469C563.362 495.892 564.423 494.531 565.807 493.561C567.19 492.591 568.832 492.055 570.522 492.023C572.211 491.991 573.872 492.464 575.291 493.381C576.71 494.298 577.823 495.618 578.486 497.171C582.313 505.889 587.243 514.904 584.926 524.568C600.518 490.721 594.707 448.858 570.915 420.266C564.38 416.75 559.051 410.444 557.609 403.077C560.837 404.135 564.823 401.482 562.372 398.12C561.311 396.836 560.24 395.562 559.179 394.278C571.276 381.158 586.032 401.456 572.747 419.135C577.2 424.605 581.069 430.526 584.289 436.799C583.496 430.112 584.302 423.333 586.643 417.018C589.02 411.131 593.533 406.149 597.5 401.041C602.324 394.818 612.4 397.572 613.132 405.404C608.64 406.927 608.116 413.436 613.279 414.277C612.068 428.871 602.661 442.363 589.589 448.883C594.569 462.432 596.6 476.886 595.549 491.281C597.707 474.449 615.729 470.197 628.289 463.396C629.088 462.873 630.021 462.594 630.976 462.593C631.93 462.591 632.864 462.868 633.665 463.388C634.465 463.908 635.096 464.649 635.482 465.521C635.867 466.394 635.99 467.36 635.836 468.301C634.1 469.025 632.441 469.92 630.883 470.972C630.152 471.473 629.595 472.187 629.287 473.016C628.979 473.846 628.935 474.75 629.162 475.606C629.388 476.461 629.874 477.226 630.553 477.794C631.231 478.363 632.069 478.708 632.951 478.782C626.738 494.578 610.387 505.3 593.49 505.402C591.934 512.467 589.646 519.351 586.665 525.944L561.587 526.183C561.495 525.905 561.411 525.618 561.327 525.341C563.65 525.465 565.979 525.304 568.263 524.862C562.052 517.655 557.268 513.994 560.746 503.818Z" fill="#F2F2F2"/>
<path d="M75.3243 503.818C74.6771 503.841 74.0383 503.665 73.4945 503.314C72.9507 502.963 72.5281 502.453 72.284 501.854C72.0399 501.254 71.986 500.595 72.1298 499.964C72.2735 499.333 72.6078 498.761 73.0875 498.327C73.1702 498.011 73.2295 497.785 73.3121 497.469C72.708 495.892 71.6463 494.531 70.2631 493.561C68.8798 492.591 67.2381 492.055 65.5482 492.023C63.8584 491.991 62.1975 492.464 60.7784 493.381C59.3594 494.298 58.2468 495.618 57.5833 497.171C53.757 505.889 48.8264 514.904 51.1437 524.568C35.5519 490.721 41.363 448.858 65.1548 420.266C71.6893 416.75 77.0186 410.444 78.4606 403.077C75.233 404.135 71.2469 401.482 73.698 398.12C74.7589 396.836 75.8297 395.562 76.8904 394.278C64.7937 381.158 50.0381 401.456 63.3223 419.135C58.8694 424.605 55.0011 430.526 51.7804 436.799C52.5741 430.112 51.7675 423.333 49.427 417.018C47.05 411.131 42.537 406.149 38.5696 401.041C33.7461 394.818 23.6699 397.572 22.9382 405.404C27.4301 406.927 27.9535 413.436 22.7907 414.277C24.0017 428.871 33.4089 442.363 46.4804 448.883C41.5012 462.432 39.4695 476.886 40.5209 491.281C38.363 474.449 20.3409 470.197 7.78073 463.396C6.98217 462.873 6.0487 462.594 5.09417 462.593C4.13965 462.591 3.20533 462.868 2.4052 463.388C1.60507 463.908 0.973712 464.649 0.588145 465.521C0.202578 466.394 0.0794665 467.36 0.233832 468.301C1.96943 469.025 3.62871 469.92 5.18723 470.972C5.91745 471.473 6.4748 472.187 6.7829 473.016C7.09099 473.846 7.13475 474.75 6.90817 475.606C6.68159 476.461 6.19576 477.226 5.51727 477.794C4.83879 478.363 4.00087 478.708 3.11837 478.782C9.33162 494.578 25.6824 505.3 42.5796 505.402C44.1362 512.467 46.4234 519.351 49.4045 525.944L74.4826 526.183C74.5752 525.905 74.6589 525.618 74.7424 525.341C72.4198 525.465 70.0907 525.304 67.8072 524.862C74.0178 517.655 78.8027 513.994 75.3251 503.818L75.3243 503.818Z" fill="#F2F2F2"/>
<path d="M247.198 25.7418H223.27C222.095 25.7418 220.968 25.2754 220.137 24.4451C219.306 23.6149 218.839 22.4888 218.839 21.3147C218.839 20.1406 219.306 19.0145 220.137 18.1843C220.968 17.354 222.095 16.8876 223.27 16.8876H247.198C248.373 16.8876 249.5 17.354 250.331 18.1843C251.162 19.0145 251.629 20.1406 251.629 21.3147C251.629 22.4888 251.162 23.6149 250.331 24.4451C249.5 25.2754 248.373 25.7418 247.198 25.7418Z" fill="#E6E6E6"/>
<path d="M404.055 25.2991C406.258 25.2991 408.043 23.5152 408.043 21.3147C408.043 19.1142 406.258 17.3303 404.055 17.3303C401.853 17.3303 400.067 19.1142 400.067 21.3147C400.067 23.5152 401.853 25.2991 404.055 25.2991Z" fill="#E6E6E6"/>
<path d="M416.462 25.2991C418.664 25.2991 420.45 23.5152 420.45 21.3147C420.45 19.1142 418.664 17.3303 416.462 17.3303C414.259 17.3303 412.474 19.1142 412.474 21.3147C412.474 23.5152 414.259 25.2991 416.462 25.2991Z" fill="#E6E6E6"/>
<path d="M428.869 25.2991C431.071 25.2991 432.857 23.5152 432.857 21.3147C432.857 19.1142 431.071 17.3303 428.869 17.3303C426.666 17.3303 424.881 19.1142 424.881 21.3147C424.881 23.5152 426.666 25.2991 428.869 25.2991Z" fill="#E6E6E6"/>
<path d="M401.267 87.6183H250.879C247.965 87.6223 245.173 88.7803 243.113 90.8385C241.053 92.8966 239.894 95.6869 239.89 98.5975V196.268C239.894 199.178 241.053 201.969 243.113 204.027C245.173 206.085 247.965 207.243 250.879 207.247H401.267C404.181 207.244 406.974 206.087 409.034 204.028C411.095 201.97 412.253 199.179 412.256 196.268V98.5975C412.253 95.6864 411.095 92.8953 409.034 90.8368C406.974 88.7784 404.181 87.6208 401.267 87.6183Z" fill="#F2F2F2"/>
<path d="M354.185 129.314C340.595 153.322 325.597 176.507 309.271 198.748H285.688C301.135 179.946 316.594 161.144 332.064 142.342C336.502 136.928 341.318 131.256 347.976 129.056L354.185 129.314Z" fill="#3F3D56"/>
<path d="M322.844 125.464C320.384 128.025 318.027 130.689 315.808 133.456C310.923 139.334 306.106 145.263 301.272 151.176C298.262 154.854 295.252 158.532 292.276 162.21C291.331 161.603 290.434 160.925 289.592 160.181C284.839 156.06 281.891 150.242 281.38 143.974C280.868 137.706 282.834 131.488 286.856 126.651C290.878 121.815 296.637 118.744 302.897 118.098C309.158 117.453 315.423 119.282 320.349 123.196C321.237 123.888 322.071 124.646 322.844 125.464Z" fill="#A27BF6"/>
<path d="M412.256 122.672V126.24L410.661 125.656L388.213 117.457C380.902 114.792 373.609 111.746 366.058 109.825C359.489 107.947 352.513 108.036 345.995 110.081C340.184 112.229 334.867 115.527 330.362 119.777C328.368 121.618 326.436 123.504 324.566 125.461C323.955 126.107 323.343 126.754 322.741 127.4C320.933 129.366 319.187 131.376 317.53 133.456C312.647 139.335 307.826 145.268 302.996 151.174C299.983 154.857 296.97 158.531 293.992 162.206C284.049 174.363 274.165 186.543 264.34 198.747C263.017 198.732 261.699 198.566 260.414 198.251C270.437 185.811 280.507 173.403 290.625 161.028C290.855 160.745 291.086 160.462 291.316 160.178C292.503 158.7 293.718 157.212 294.923 155.733C299.965 149.562 305.011 143.397 310.059 137.237C313.728 132.757 317.37 128.259 321.323 124.009C321.562 123.734 321.81 123.469 322.067 123.194C322.448 122.787 322.829 122.389 323.219 121.972C331.806 113.109 342.521 105.274 355.353 105.061C362.903 104.946 370.197 107.337 377.215 109.86C384.775 112.596 392.307 115.376 399.858 118.139L412.256 122.672Z" fill="#3F3D56"/>
<path d="M415.792 422.891H236.196C233.282 422.888 230.489 421.73 228.429 419.672C226.369 417.614 225.211 414.823 225.207 411.913V387.73C225.211 384.819 226.369 382.029 228.429 379.97C230.489 377.912 233.282 376.755 236.196 376.751H415.792C418.705 376.755 421.498 377.912 423.558 379.97C425.618 382.029 426.777 384.819 426.78 387.73V411.913C426.777 414.823 425.618 417.614 423.558 419.672C421.498 421.73 418.705 422.888 415.792 422.891Z" fill="#F2F2F2"/>
<path d="M415.792 298.933H236.196C233.282 298.93 230.489 297.772 228.429 295.714C226.369 293.656 225.211 290.865 225.207 287.954V263.771C225.211 260.861 226.369 258.07 228.429 256.012C230.489 253.954 233.282 252.796 236.196 252.793H415.792C418.705 252.796 421.498 253.954 423.558 256.012C425.618 258.07 426.777 260.861 426.78 263.771V287.954C426.777 290.865 425.618 293.656 423.558 295.714C421.498 297.772 418.705 298.93 415.792 298.933Z" fill="#F2F2F2"/>
<path d="M415.792 360.912H236.196C233.282 360.909 230.489 359.751 228.429 357.693C226.369 355.635 225.211 352.844 225.207 349.934V325.75C225.211 322.84 226.369 320.049 228.429 317.991C230.489 315.933 233.282 314.775 236.196 314.772H415.792C418.705 314.775 421.498 315.933 423.558 317.991C425.618 320.049 426.777 322.84 426.78 325.75V349.934C426.777 352.844 425.618 355.635 423.558 357.693C421.498 359.751 418.705 360.909 415.792 360.912Z" fill="#F2F2F2"/>
<path d="M347.813 395.682H294.897C294.269 395.682 293.667 395.433 293.223 394.99C292.779 394.546 292.529 393.944 292.529 393.317C292.529 392.69 292.779 392.088 293.223 391.645C293.667 391.201 294.269 390.952 294.897 390.952H347.813C348.441 390.952 349.043 391.201 349.487 391.645C349.931 392.088 350.18 392.69 350.18 393.317C350.18 393.944 349.931 394.546 349.487 394.99C349.043 395.433 348.441 395.682 347.813 395.682Z" fill="white"/>
<path d="M398.708 408.69H294.305C293.677 408.69 293.075 408.441 292.631 407.998C292.187 407.554 291.938 406.953 291.938 406.325C291.938 405.698 292.187 405.097 292.631 404.653C293.075 404.209 293.677 403.96 294.305 403.96H398.708C399.336 403.96 399.938 404.209 400.382 404.653C400.826 405.097 401.075 405.698 401.075 406.325C401.075 406.953 400.826 407.554 400.382 407.998C399.938 408.441 399.336 408.69 398.708 408.69Z" fill="white"/>
<path d="M266.784 415.679C275.549 415.679 282.655 408.579 282.655 399.821C282.655 391.064 275.549 383.964 266.784 383.964C258.018 383.964 250.912 391.064 250.912 399.821C250.912 408.579 258.018 415.679 266.784 415.679Z" fill="white"/>
<path d="M263.247 421.241C261.628 420.485 259.777 420.39 258.088 420.976C256.399 421.563 255.007 422.785 254.206 424.381C254.048 424.709 253.918 425.048 253.816 425.397L229.916 426.824L226.374 439.195L258.903 433.704C260.382 434.013 261.923 433.824 263.283 433.166C264.644 432.508 265.748 431.419 266.424 430.068C266.801 429.296 267.022 428.457 267.075 427.599C267.128 426.741 267.011 425.882 266.731 425.069C266.451 424.257 266.014 423.507 265.444 422.863C264.874 422.22 264.183 421.694 263.41 421.317C263.356 421.291 263.302 421.266 263.247 421.241Z" fill="#FFB6B6"/>
<path d="M210.493 360.218C208.918 359.574 207.222 359.277 205.522 359.346C203.822 359.415 202.157 359.849 200.639 360.619C199.122 361.389 197.789 362.476 196.729 363.807C195.67 365.137 194.91 366.68 194.501 368.33L187.93 394.843L189.166 441.224C189.166 441.224 223.464 447.799 229.222 443.573C234.98 439.346 234.439 436.2 234.98 439.346C235.52 442.492 237.992 443.813 238.026 442.561C238.06 441.309 238.34 441.523 239.775 441.146C241.209 440.769 247.542 438.437 247.542 438.437L247.826 425.213C247.826 425.213 237.356 421.248 234.816 422.431C232.277 423.614 235.357 425.577 232.277 423.614C229.196 421.651 228.859 415.454 228.333 421.039C227.806 426.623 226.264 427.663 223.954 425.18C221.645 422.697 210.945 424.283 210.945 424.283L217.754 372.725C218.096 370.132 217.569 367.498 216.256 365.236C214.942 362.973 212.916 361.209 210.493 360.218Z" fill="#52EEC4"/>
<path d="M441.467 497.762L441.828 487.996L404.296 481.958L403.764 496.372L441.467 497.762Z" fill="#FFB6B6"/>
<path d="M434.654 500.702L434.298 485.065L440.989 485.312L451.791 470.856C452.324 470.142 453.072 469.617 453.925 469.357C454.779 469.098 455.692 469.118 456.534 469.414C457.375 469.711 458.099 470.268 458.6 471.005C459.102 471.741 459.355 472.619 459.322 473.509L458.636 492.085L451.899 495.043L458.471 496.537L458.213 503.541L434.654 500.702Z" fill="#2F2E41"/>
<path d="M230.233 520.158L349.111 506.347C349.111 506.347 400.446 509.309 412.491 501.481L425.192 499.879L425.88 481.238C425.88 481.238 418.113 481.296 413.648 479.217C409.182 477.138 412.286 474.594 408.028 477.095C403.771 479.597 404.221 479.897 400.929 478.748C397.637 477.598 246.686 471.433 246.686 471.433L230.233 520.158Z" fill="black"/>
<path d="M386.883 512.069L393.795 505.154L370.39 475.225L360.188 485.43L386.883 512.069Z" fill="#FFB6B6"/>
<path d="M379.886 509.595L390.27 497.89L395.007 502.618L412.767 499.36C413.644 499.199 414.549 499.322 415.351 499.712C416.153 500.102 416.81 500.737 417.224 501.526C417.639 502.315 417.791 503.215 417.657 504.096C417.523 504.977 417.111 505.792 416.481 506.423L403.333 519.574L396.381 517.165L400.182 522.726L395.225 527.685L379.886 509.595Z" fill="#2F2E41"/>
<path d="M183.332 455.111L184.514 482.558C185.905 514.87 221.521 534.426 249.139 517.556C249.648 517.245 250.158 516.923 250.671 516.589C250.671 516.589 261.141 513.78 260.823 509.331C260.505 504.883 263.063 502.717 265.326 503.931C267.59 505.144 297.226 463.121 297.226 463.121C297.226 463.121 358.801 493.809 372.384 501.033L386.717 497.131C386.717 497.131 392.112 499.677 390.169 495.995C388.226 492.314 387.877 494.077 387.28 490.066C386.683 486.055 385.156 481.082 384.23 481.291C383.304 481.5 308.055 428.879 308.055 428.879C308.055 428.879 295.796 416.483 280.589 424.667C280.272 425.87 280.543 425.912 280.543 425.912L230.309 466.808L223.211 453.34L183.332 455.111Z" fill="black"/>
<path d="M217.095 354.259L195.557 344.174L189.109 355.384C189.109 355.384 171.791 380.075 171.54 397.888C171.289 415.701 174.362 420.998 174.362 420.998C174.362 420.998 166.896 426.575 170.629 429.985C174.362 433.394 182.628 434.865 176.28 436.343C169.931 437.821 171.54 452.784 178.63 455.44C185.719 458.096 223.794 458.073 223.794 458.073C223.452 456.913 223.427 455.683 223.721 454.509C224.016 453.336 224.619 452.263 225.469 451.402C228.421 448.446 231.079 450.567 228.421 445.965C225.762 441.363 221.331 444.019 224.876 437.821C228.421 431.623 228.419 429.771 228.419 429.771C228.419 429.771 235.646 416.03 224.761 401.123C224.098 400.215 224.655 400.18 224.655 400.18L215.866 370.752L217.095 354.259Z" fill="#52EEC4"/>
<path d="M182.386 311.854C182.568 316.399 179.701 322.839 178.289 326.722C176.78 330.874 183.322 336.385 187.51 337.591C187.728 336.153 188.446 334.838 189.538 333.876C189.236 335.246 189.21 336.663 189.461 338.044L224.862 346.097C231.231 338.728 237.635 328.134 236.238 315.358C236.573 312.932 236.182 310.461 235.116 308.256C234.051 306.05 232.356 304.209 230.247 302.962L212.349 292.398C204.737 290.667 195.15 289.621 189.651 294.328C187.195 296.511 185.265 299.223 184.006 302.258C182.748 305.293 182.194 308.574 182.386 311.854Z" fill="#2F2E41"/>
<path d="M214.03 342.204C225.287 342.204 234.413 333.086 234.413 321.839C234.413 310.592 225.287 301.474 214.03 301.474C202.773 301.474 193.647 310.592 193.647 321.839C193.647 333.086 202.773 342.204 214.03 342.204Z" fill="#FFB6B6"/>
<path d="M190.152 310.959L189.168 315.276L206.363 319.187C206.379 318.314 206.574 317.454 206.938 316.66C207.302 315.866 207.826 315.156 208.478 314.574C208.107 316.266 208.149 318.023 208.601 319.696C217.875 324.895 226.233 326.737 233.728 325.411C234.744 325.642 235.81 325.461 236.691 324.907C237.572 324.353 238.198 323.472 238.429 322.457C241.444 309.222 233.544 295.696 220.362 292.41C217.158 291.61 213.827 291.457 210.563 291.96C207.299 292.463 204.168 293.612 201.354 295.339C198.54 297.067 196.1 299.338 194.176 302.021C192.253 304.703 190.884 307.742 190.152 310.959Z" fill="#2F2E41"/>
<path d="M200.205 282.479C202.472 281.988 204.872 282.107 206.922 280.572L205.578 283.656C209.305 282.635 213.279 283.032 216.731 284.769C217.757 285.228 218.632 285.969 219.256 286.904C219.591 287.469 219.794 288.102 219.852 288.756C219.909 289.411 219.819 290.069 219.588 290.684C219.367 291.212 219.039 291.687 218.625 292.081C218.21 292.474 217.717 292.777 217.179 292.97C216.225 293.256 215.225 293.361 214.232 293.278C210.047 293.181 205.862 293.083 201.677 292.986C200.083 293.085 198.489 292.775 197.047 292.087C196.281 291.614 195.669 290.928 195.288 290.113C194.906 289.297 194.771 288.388 194.899 287.498C195.298 284.695 197.938 282.971 200.205 282.479Z" fill="#2F2E41"/>
<path d="M310.772 442.085C310.723 442.027 310.667 441.975 310.605 441.932C310.453 441.755 310.267 441.61 310.059 441.505L308.567 440.707L298.666 429.724C298.092 429.425 297.426 429.362 296.806 429.546L296.781 429.554L292.539 430.864L288.891 431.995L283.795 433.574L249.086 444.312L226.271 451.369C225.654 451.564 225.139 451.993 224.835 452.564C224.532 453.135 224.466 453.802 224.65 454.422C224.757 454.763 224.934 455.078 225.171 455.347L225.897 456.154L227.419 457.849L230.948 465.154L231.926 466.246C232.238 466.593 232.643 466.845 233.093 466.971C233.542 467.097 234.019 467.092 234.466 466.958L309.629 446.075C310.019 445.949 310.373 445.729 310.658 445.434C310.943 445.139 311.151 444.779 311.264 444.384C311.377 443.99 311.391 443.574 311.305 443.173C311.22 442.772 311.036 442.398 310.772 442.085Z" fill="#CCCCCC"/>
<path d="M306.309 333.439L304.854 333.675C304.455 333.741 304.098 333.962 303.862 334.29L303.22 335.186L297.436 349.638C297.2 349.968 297.106 350.379 297.173 350.779L297.851 354.896L295.289 428.391C295.354 428.771 295.558 429.113 295.862 429.35L307.093 444.36L307.355 444.568L307.921 445.011C308.211 445.235 308.571 445.349 308.937 445.334L309.892 445.288C310.108 445.278 310.32 445.221 310.514 445.123C310.707 445.024 310.877 444.886 311.013 444.717C311.15 444.549 311.249 444.354 311.304 444.145C311.359 443.936 311.369 443.717 311.332 443.504L308.073 334.697C308.008 334.297 307.785 333.94 307.456 333.704C307.127 333.468 306.717 333.372 306.317 333.438L306.309 333.439Z" fill="#CCCCCC"/>
<path d="M303.872 339.15L298.748 354.745L296.766 417.038L304.741 424.121L303.872 339.15Z" fill="#52EEC4"/>
<path d="M264.247 434.17C262.628 433.414 260.777 433.319 259.088 433.906C257.399 434.492 256.006 435.714 255.206 437.311C255.048 437.638 254.918 437.978 254.816 438.326L230.916 439.753L227.374 452.125L259.903 446.633C261.382 446.942 262.922 446.753 264.283 446.095C265.644 445.437 266.748 444.348 267.424 442.997C268.186 441.438 268.296 439.64 267.731 437.998C267.166 436.357 265.971 435.008 264.41 434.247C264.356 434.22 264.302 434.195 264.247 434.17Z" fill="#FFB6B6"/>
<path d="M211.493 373.147C209.918 372.503 208.222 372.206 206.522 372.275C204.822 372.344 203.157 372.779 201.639 373.548C200.122 374.318 198.788 375.405 197.729 376.736C196.67 378.067 195.91 379.609 195.501 381.26L188.93 407.772L190.166 454.153C190.166 454.153 224.464 460.729 230.222 456.502C235.98 452.275 235.439 449.129 235.98 452.275C236.52 455.422 238.991 456.742 239.026 455.49C239.06 454.239 239.34 454.453 240.774 454.076C242.209 453.699 248.542 451.367 248.542 451.367L248.826 438.143C248.826 438.143 238.356 434.177 235.816 435.36C233.277 436.543 236.357 438.507 233.277 436.543C230.196 434.58 229.859 428.384 229.333 433.968C228.806 439.553 227.264 440.592 224.954 438.109C222.645 435.626 211.944 437.212 211.944 437.212L218.754 385.655C219.096 383.061 218.569 380.428 217.256 378.165C215.942 375.902 213.916 374.138 211.493 373.147Z" fill="#52EEC4"/>
<path d="M4.66763e-06 526.946C-0.000408364 527.085 0.0265939 527.222 0.0794485 527.35C0.132303 527.478 0.209975 527.594 0.30799 527.692C0.406005 527.79 0.522425 527.868 0.650565 527.921C0.778705 527.973 0.916031 528 1.05464 528H634.945C635.225 528 635.493 527.889 635.691 527.691C635.889 527.494 636 527.226 636 526.946C636 526.667 635.889 526.399 635.691 526.201C635.493 526.004 635.225 525.893 634.945 525.893H1.05459C0.915982 525.892 0.77867 525.919 0.650538 525.972C0.522406 526.025 0.405984 526.102 0.307976 526.2C0.209968 526.298 0.132301 526.415 0.0794485 526.543C0.0265956 526.671 -0.000403625 526.808 4.66763e-06 526.946Z" fill="#CCCCCC"/>
<path d="M559.356 298.933H379.76C376.847 298.93 374.054 297.772 371.994 295.714C369.934 293.656 368.775 290.865 368.772 287.954V263.771C368.775 260.861 369.934 258.07 371.994 256.012C374.054 253.954 376.847 252.796 379.76 252.793H559.356C562.27 252.796 565.063 253.954 567.123 256.012C569.182 258.07 570.341 260.861 570.345 263.771V287.954C570.341 290.865 569.182 293.656 567.123 295.714C565.063 297.772 562.27 298.93 559.356 298.933Z" fill="#E6E6E6"/>
<path d="M491.378 271.724H438.461C437.833 271.724 437.231 271.475 436.787 271.031C436.343 270.588 436.094 269.986 436.094 269.359C436.094 268.732 436.343 268.13 436.787 267.687C437.231 267.243 437.833 266.994 438.461 266.994H491.378C492.006 266.994 492.608 267.243 493.052 267.687C493.495 268.13 493.745 268.732 493.745 269.359C493.745 269.986 493.495 270.588 493.052 271.031C492.608 271.475 492.006 271.724 491.378 271.724Z" fill="white"/>
<path d="M542.272 284.732H437.869C437.242 284.732 436.639 284.483 436.196 284.039C435.752 283.596 435.502 282.994 435.502 282.367C435.502 281.74 435.752 281.138 436.196 280.695C436.639 280.251 437.242 280.002 437.869 280.002H542.272C542.9 280.002 543.502 280.251 543.946 280.695C544.39 281.138 544.64 281.74 544.64 282.367C544.64 282.994 544.39 283.596 543.946 284.039C543.502 284.483 542.9 284.732 542.272 284.732Z" fill="white"/>
<path d="M410.348 291.72C419.114 291.72 426.22 284.621 426.22 275.863C426.22 267.105 419.114 260.006 410.348 260.006C401.583 260.006 394.477 267.105 394.477 275.863C394.477 284.621 401.583 291.72 410.348 291.72Z" fill="white"/>
<path d="M501.753 360.912H322.157C319.244 360.909 316.451 359.751 314.391 357.693C312.331 355.635 311.172 352.844 311.169 349.934V325.75C311.172 322.84 312.331 320.049 314.391 317.991C316.451 315.933 319.244 314.775 322.157 314.772H501.753C504.667 314.775 507.46 315.933 509.52 317.991C511.579 320.049 512.738 322.84 512.742 325.75V349.934C512.738 352.844 511.579 355.635 509.52 357.693C507.46 359.751 504.667 360.909 501.753 360.912Z" fill="#E6E6E6"/>
<path d="M433.775 333.703H380.858C380.23 333.703 379.628 333.454 379.184 333.01C378.74 332.567 378.491 331.965 378.491 331.338C378.491 330.711 378.74 330.109 379.184 329.666C379.628 329.222 380.23 328.973 380.858 328.973H433.775C434.402 328.973 435.005 329.222 435.448 329.666C435.892 330.109 436.142 330.711 436.142 331.338C436.142 331.965 435.892 332.567 435.448 333.01C435.005 333.454 434.402 333.703 433.775 333.703Z" fill="white"/>
<path d="M484.669 346.711H380.266C379.638 346.711 379.036 346.462 378.592 346.019C378.148 345.575 377.899 344.973 377.899 344.346C377.899 343.719 378.148 343.117 378.592 342.674C379.036 342.23 379.638 341.981 380.266 341.981H484.669C485.297 341.981 485.899 342.23 486.343 342.674C486.787 343.117 487.036 343.719 487.036 344.346C487.036 344.973 486.787 345.575 486.343 346.019C485.899 346.462 485.297 346.711 484.669 346.711Z" fill="white"/>
<path d="M352.745 353.699C361.511 353.699 368.617 346.6 368.617 337.842C368.617 329.084 361.511 321.985 352.745 321.985C343.98 321.985 336.874 329.084 336.874 337.842C336.874 346.6 343.98 353.699 352.745 353.699Z" fill="white"/>
</g>
<defs>
<clipPath id="clip0_26_74">
<rect width="636" height="528" fill="white"/>
</clipPath>
</defs>
</svg>
