<svg data-v-423bf9ae="" xmlns="http://www.w3.org/2000/svg" viewBox="0 0 762 90" class="iconLeft"><!----><!----><!----><g data-v-423bf9ae="" id="6fd1b4cb-3894-4bb7-804c-7b2145ff1603" fill="black" transform="matrix(5.639097562403148,0,0,5.639097562403148,102.8947374924619,-6.879699664304873)"><path d="M1.26 14.35L7.28 14.35L7.28 13.33L2.44 13.33L2.44 9.91L7.11 9.91L7.11 8.89L2.44 8.89L2.44 5.60L7.28 5.60L7.28 4.58L1.26 4.58ZM9.52 13.40L9.52 14.35L15.68 14.35L15.68 13.40L13.16 13.40L13.16 3.99L9.52 3.99L9.52 4.94L12.04 4.94L12.04 13.40ZM21.45 5.53C22.09 5.53 22.33 5.22 22.33 4.82L22.33 4.59C22.33 4.19 22.09 3.88 21.45 3.88C20.80 3.88 20.57 4.19 20.57 4.59L20.57 4.82C20.57 5.22 20.80 5.53 21.45 5.53ZM18.28 13.40L18.28 14.35L24.44 14.35L24.44 13.40L22.01 13.40L22.01 7.13L18.28 7.13L18.28 8.08L20.89 8.08L20.89 13.40ZM32.13 14.35L32.90 14.35L32.90 13.37L31.89 13.37L31.89 9.39C31.89 7.87 30.81 6.96 29.12 6.96C27.65 6.96 26.73 7.66 26.36 8.41L27.12 8.97C27.50 8.32 28.08 7.91 29.05 7.91C30.14 7.91 30.77 8.46 30.77 9.51L30.77 10.22L29.23 10.22C27.06 10.22 26.12 10.99 26.12 12.32C26.12 13.68 27.09 14.52 28.60 14.52C29.78 14.52 30.46 14 30.77 13.17L30.84 13.17C30.93 13.85 31.26 14.35 32.13 14.35ZM28.80 13.58C27.87 13.58 27.30 13.19 27.30 12.45L27.30 12.15C27.30 11.45 27.90 11.06 29.23 11.06L30.77 11.06L30.77 12.25C30.77 12.99 29.95 13.58 28.80 13.58ZM34.97 14.35L36.09 14.35L36.09 9.34C36.09 8.39 36.99 7.95 37.88 7.95C38.99 7.95 39.59 8.60 39.59 9.91L39.59 14.35L40.71 14.35L40.71 9.72C40.71 7.97 39.72 6.96 38.21 6.96C37.02 6.96 36.46 7.59 36.15 8.30L36.09 8.30L36.09 7.13L34.97 7.13ZM48.93 14.35L49.70 14.35L49.70 13.37L48.69 13.37L48.69 9.39C48.69 7.87 47.61 6.96 45.92 6.96C44.45 6.96 43.53 7.66 43.16 8.41L43.92 8.97C44.30 8.32 44.88 7.91 45.85 7.91C46.94 7.91 47.57 8.46 47.57 9.51L47.57 10.22L46.03 10.22C43.86 10.22 42.92 10.99 42.92 12.32C42.92 13.68 43.89 14.52 45.40 14.52C46.58 14.52 47.26 14 47.57 13.17L47.64 13.17C47.73 13.85 48.06 14.35 48.93 14.35ZM45.60 13.58C44.67 13.58 44.10 13.19 44.10 12.45L44.10 12.15C44.10 11.45 44.70 11.06 46.03 11.06L47.57 11.06L47.57 12.25C47.57 12.99 46.75 13.58 45.60 13.58ZM65.53 14.35L66.78 14.35L63.78 4.58L62.23 4.58L59.23 14.35L60.45 14.35L61.28 11.56L64.71 11.56ZM63.06 5.82L64.43 10.54L61.56 10.54L62.93 5.82ZM71.75 14.35L74.56 14.35L74.56 13.40L71.27 13.40L71.27 8.08L74.56 8.08L74.56 7.13L71.27 7.13L71.27 4.58L70.20 4.58L70.20 6.47C70.20 6.96 70.01 7.13 69.54 7.13L67.75 7.13L67.75 8.08L70.15 8.08L70.15 12.70C70.15 13.66 70.66 14.35 71.75 14.35ZM82.53 14.35L83.30 14.35L83.30 13.37L82.29 13.37L82.29 9.39C82.29 7.87 81.21 6.96 79.52 6.96C78.05 6.96 77.13 7.66 76.76 8.41L77.52 8.97C77.90 8.32 78.48 7.91 79.45 7.91C80.54 7.91 81.17 8.46 81.17 9.51L81.17 10.22L79.63 10.22C77.46 10.22 76.52 10.99 76.52 12.32C76.52 13.68 77.49 14.52 79.00 14.52C80.18 14.52 80.86 14 81.17 13.17L81.24 13.17C81.33 13.85 81.66 14.35 82.53 14.35ZM79.20 13.58C78.27 13.58 77.70 13.19 77.70 12.45L77.70 12.15C77.70 11.45 78.30 11.06 79.63 11.06L81.17 11.06L81.17 12.25C81.17 12.99 80.35 13.58 79.20 13.58ZM88.28 14.52C90.13 14.52 91.34 13.69 91.34 12.26C91.34 10.70 89.89 10.42 88.86 10.26L87.72 10.09C87.08 10.00 86.45 9.80 86.45 9.04C86.45 8.30 87.08 7.90 88.21 7.90C89.49 7.90 90.13 8.40 90.47 8.81L91.20 8.12C90.51 7.39 89.56 6.96 88.26 6.96C86.58 6.96 85.34 7.67 85.34 9.11C85.34 10.68 86.80 10.96 87.82 11.12L88.96 11.28C89.61 11.38 90.23 11.58 90.23 12.33C90.23 13.19 89.43 13.58 88.31 13.58C87.16 13.58 86.38 13.17 85.69 12.45L84.94 13.10C85.69 13.96 86.77 14.52 88.28 14.52ZM97.05 5.53C97.69 5.53 97.93 5.22 97.93 4.82L97.93 4.59C97.93 4.19 97.69 3.88 97.05 3.88C96.40 3.88 96.17 4.19 96.17 4.59L96.17 4.82C96.17 5.22 96.40 5.53 97.05 5.53ZM93.88 13.40L93.88 14.35L100.04 14.35L100.04 13.40L97.61 13.40L97.61 7.13L93.88 7.13L93.88 8.08L96.49 8.08L96.49 13.40ZM105.13 14.52C106.55 14.52 107.59 13.82 108.02 12.85L107.20 12.29C106.82 13.08 106.09 13.55 105.13 13.55C103.77 13.55 102.91 12.63 102.91 11.35L102.91 11.02L108.26 11.02L108.26 10.49C108.26 8.44 107.00 6.96 105.06 6.96C103.10 6.96 101.74 8.44 101.74 10.75C101.74 13.03 103.05 14.52 105.13 14.52ZM105.06 7.88C106.25 7.88 107.06 8.75 107.06 10.02L107.06 10.18L102.91 10.18L102.91 10.08C102.91 8.82 103.82 7.88 105.06 7.88ZM113.85 5.53C114.49 5.53 114.73 5.22 114.73 4.82L114.73 4.59C114.73 4.19 114.49 3.88 113.85 3.88C113.20 3.88 112.97 4.19 112.97 4.59L112.97 4.82C112.97 5.22 113.20 5.53 113.85 5.53ZM110.68 13.40L110.68 14.35L116.84 14.35L116.84 13.40L114.41 13.40L114.41 7.13L110.68 7.13L110.68 8.08L113.29 8.08L113.29 13.40Z"></path></g><!----><g data-v-423bf9ae="" id="6466e494-c179-4b9a-b82e-c032e0926ead" transform="matrix(1.836734693877551,0,0,1.836734693877551,-46.33673469387756,-46.33673469387756)" stroke="none" fill="black"><path d="M54.463 41.188a.5.5 0 0 0-.926-.376l.926.376zm-8.426 18.124a.5.5 0 0 0 .926.376l-.926-.376zm-2.183-13.458a.5.5 0 0 0-.708-.708l.708.708zM38 51l-.354-.354a.5.5 0 0 0 0 .708L38 51zm4.646 5.354a.5.5 0 0 0 .708-.708l-.708.708zm13.708-11.208a.5.5 0 0 0-.708.708l.708-.708zM61.5 51l.354.354a.5.5 0 0 0 0-.708L61.5 51zm-5.354 4.646a.5.5 0 0 0 .708.708l-.708-.708zm-2.61-14.834l-7.5 18.5.927.376 7.5-18.5-.926-.376zm-10.39 4.334l-5.5 5.5.708.708 5.5-5.5-.708-.708zm-5.5 6.208l5 5 .708-.708-5-5-.708.708zm18-5.5l5.5 5.5.708-.708-5.5-5.5-.708.708zm5.5 4.792l-5 5 .708.708 5-5-.708-.708zM73.5 50c0 12.979-10.521 23.5-23.5 23.5v1c13.531 0 24.5-10.969 24.5-24.5h-1zM50 73.5c-12.979 0-23.5-10.521-23.5-23.5h-1c0 13.531 10.969 24.5 24.5 24.5v-1zM26.5 50c0-12.979 10.521-23.5 23.5-23.5v-1c-13.531 0-24.5 10.969-24.5 24.5h1zM50 26.5c12.979 0 23.5 10.521 23.5 23.5h1c0-13.531-10.969-24.5-24.5-24.5v1z"></path></g><!----></svg>