<svg data-v-423bf9ae="" xmlns="http://www.w3.org/2000/svg" viewBox="0 0 806 90" class="iconLeftSlogan"><!----><!----><!----><g data-v-423bf9ae="" id="1f19ef97-7eda-4e9e-9c02-3ce0112e7734" fill="white" transform="matrix(6.912442912754505,0,0,6.912442912754505,184.43422046839873,-11.889401769285747)"><path d="M6.54 10.26L6.54 9.58L2.09 9.58L2.09 6.34L6.54 6.34L6.54 5.66L2.09 5.66L2.09 2.55L6.54 2.55L6.54 1.86L1.02 1.86L1.30 2.66L1.30 10.26ZM14 10.26L14 8.53L13.69 8.53L13.34 9.55L9.56 9.55L9.56 1.86L8.76 1.86L8.76 10.26ZM17.82 10.26L17.82 9.95L16.77 9.60L16.77 2.52L17.82 2.17L17.82 1.86L14.92 1.86L14.92 2.17L15.97 2.52L15.97 9.60L14.92 9.95L14.92 10.26ZM25.77 10.26L22.40 1.86L21.25 1.86L21.25 2.66L18.20 10.26L19.11 10.26L20.02 7.92L23.95 7.92L24.86 10.26ZM23.67 7.21L20.29 7.21L21.98 2.84ZM33.18 10.26L33.18 1.86L31.36 1.86L31.36 2.17L32.41 2.52L32.41 8.88L27.68 1.86L26.61 1.86L26.89 2.66L26.89 10.26L27.68 10.26L27.68 3.25L32.41 10.26ZM41.87 10.26L38.50 1.86L37.35 1.86L37.35 2.66L34.30 10.26L35.21 10.26L36.12 7.92L40.05 7.92L40.96 10.26ZM39.77 7.21L36.39 7.21L38.08 2.84ZM53.38 10.26L50.01 1.86L48.86 1.86L48.86 2.66L45.81 10.26L46.72 10.26L47.63 7.92L51.56 7.92L52.47 10.26ZM51.28 7.21L47.89 7.21L49.59 2.84ZM60.24 2.58L60.24 1.86L53.58 1.86L53.58 3.60L53.87 3.60L54.22 2.58L56.52 2.58L56.52 10.26L57.30 10.26L57.30 2.58ZM68.01 10.26L64.64 1.86L63.49 1.86L63.49 2.66L60.44 10.26L61.35 10.26L62.26 7.92L66.19 7.92L67.10 10.26ZM65.91 7.21L62.52 7.21L64.22 2.84ZM74.33 7.99C74.33 6.55 73.30 5.61 71.36 5.61C69.97 5.61 69.30 5.00 69.30 4.00C69.30 3.22 70.03 2.44 71.44 2.44C72.27 2.44 72.90 2.53 73.53 2.72L73.93 3.60L74.23 3.60L74.23 2.24C73.35 1.89 72.56 1.72 71.44 1.72C69.50 1.72 68.49 2.81 68.49 4.03C68.49 5.43 69.44 6.41 71.36 6.41C72.77 6.41 73.50 7 73.50 8.02C73.50 8.89 72.79 9.69 71.27 9.69C70.08 9.69 69.27 9.48 68.39 9.17L68.39 9.88C69.27 10.19 70.08 10.40 71.27 10.40C73.33 10.40 74.33 9.23 74.33 7.99ZM78.34 10.26L78.34 9.95L77.29 9.60L77.29 2.52L78.34 2.17L78.34 1.86L75.45 1.86L75.45 2.17L76.50 2.52L76.50 9.60L75.45 9.95L75.45 10.26ZM85.44 10.26L85.44 9.58L80.99 9.58L80.99 6.34L85.44 6.34L85.44 5.66L80.99 5.66L80.99 2.55L85.44 2.55L85.44 1.86L79.93 1.86L80.21 2.66L80.21 10.26ZM89.82 10.26L89.82 9.95L88.77 9.60L88.77 2.52L89.82 2.17L89.82 1.86L86.93 1.86L86.93 2.17L87.98 2.52L87.98 9.60L86.93 9.95L86.93 10.26Z"></path></g><!----><g data-v-423bf9ae="" id="a5117708-03fe-495a-b205-bfe6997b41a1" transform="matrix(1.9053669123627455,0,0,1.9053669123627455,-9.269297778268808,-49.885389854324345)" stroke="none" fill="white"><path d="M50.482 28.475c-.03.03-.071.048-.106.072.035-.025.076-.042.106-.072zM50.628 28.259c-.021.052-.06.093-.093.138.033-.045.071-.086.093-.138zM50.553 27.618c.025.037.058.069.075.111-.018-.041-.05-.074-.075-.111zM50.266 28.621z"></path><path d="M50.001 28.674a.68.68 0 1 1 0-1.36.68.68 0 0 1 0 1.36zM50.001 27.314z"></path><path d="M50.376 27.442c.036.024.076.041.106.071-.03-.03-.07-.047-.106-.071zM54.305 70.684z"></path><path d="M86.63 69.109c.108-.227.177-.478.177-.746V28.107c0-.953-.772-1.725-1.727-1.725H14.92c-.953 0-1.724.772-1.724 1.725v40.256c0 .269.066.52.176.746H5v2.783c0 .953.773 1.725 1.726 1.725h86.549c.953 0 1.726-.771 1.726-1.725v-2.783H86.63zM50.001 27.314c.094 0 .183.019.265.053.042.018.074.049.11.075.036.024.076.041.106.071.03.03.047.07.071.105.025.037.058.069.075.111a.685.685 0 0 1 0 .53c-.021.052-.06.093-.093.138-.02.025-.031.056-.053.078-.03.03-.071.048-.106.072-.037.025-.069.057-.11.074a.68.68 0 1 1-.265-1.307zm-33.858 2.394h67.714v36.571H16.143V29.708zm38.162 42.338h-8.608a.681.681 0 0 1 0-1.363h8.608a.68.68 0 0 1 0 1.363z"></path><path d="M25.039 48.313v1.224h19.839V48.312H25.039zM36.633 58.613h3.488v1.225h-3.488zM46.552 48.313h3.488v1.224h-3.488zM39.377 46.296h3.488v1.224h-3.488zM20.692 31.829h3.489v1.224h-3.489zM20.692 42.131h3.489v1.224h-3.489zM20.692 46.296h3.489v1.224h-3.489zM20.692 48.313h3.489v1.224h-3.489zM20.692 44.191h5.832v1.224h-5.832zM25.039 46.296h12.665v1.224H25.039zM20.692 50.373h3.489v1.223h-3.489zM20.692 54.494h3.489v1.223h-3.489zM53.637 50.373h3.488v1.223h-3.488zM25.039 50.373H52.8v1.223H25.039zM20.692 52.434h27.792v1.223H20.692zM25.039 54.494h23.444v1.223H25.039zM20.692 56.555h17.012v1.223H20.692zM20.692 58.613h14.267v1.225H20.692zM20.692 60.674h7.134v1.225h-7.134zM20.692 62.736h5.832v1.223h-5.832zM20.692 33.89h8.694v1.224h-8.694zM20.692 35.95h11.594v1.224H20.692zM20.692 38.01h8.694v1.224h-8.694zM20.692 40.071h8.694v1.224h-8.694zM18.798 31.829h1.058v1.224h-1.058zM18.798 33.89h1.058v1.224h-1.058zM18.798 35.95h1.058v1.224h-1.058zM18.798 38.01h1.058v1.224h-1.058zM18.798 40.071h1.058v1.224h-1.058zM18.798 42.131h1.058v1.224h-1.058zM18.798 44.191h1.058v1.224h-1.058zM18.798 46.252h1.058v1.224h-1.058zM18.798 48.313h1.058v1.224h-1.058zM18.798 50.373h1.058v1.223h-1.058zM18.798 52.434h1.058v1.223h-1.058zM18.798 54.494h1.058v1.223h-1.058zM18.798 56.555h1.058v1.223h-1.058zM18.798 58.613h1.058v1.225h-1.058zM18.798 60.674h1.058v1.225h-1.058zM18.798 62.736h1.058v1.223h-1.058z"></path></g><!----><g data-v-423bf9ae="" id="448c9bfa-8e51-4bae-a3c5-d2cf3a197e39" fill="white" transform="matrix(1.4095122815405439,0,0,1.4095122815405439,189.89217337883272,57.04002435251431)"><path d="M7.83 3.22L7.83 2.21L1.13 2.21L1.13 11.48L2.18 11.48L2.18 7.46L7.21 7.46L7.21 6.44L2.18 6.44L2.18 3.22ZM17.35 7.92L20.57 7.92L22.81 11.48L24.05 11.48L21.62 7.74C22.65 7.50 23.86 6.90 23.86 5.11C23.86 3.35 22.64 2.21 20.73 2.21L16.30 2.21L16.30 11.48L17.35 11.48ZM17.35 3.21L20.61 3.21C21.92 3.21 22.81 3.93 22.81 5.11C22.81 6.55 21.55 6.93 20.55 6.93L17.35 6.93ZM36.78 2.10C33.96 2.10 32.07 4.21 32.07 6.85C32.07 9.48 33.96 11.59 36.78 11.59C39.59 11.59 41.48 9.48 41.48 6.85C41.48 4.21 39.59 2.10 36.78 2.10ZM36.78 10.57C34.52 10.57 33.12 8.93 33.12 6.85C33.12 4.76 34.52 3.12 36.78 3.12C39.03 3.12 40.43 4.76 40.43 6.85C40.43 8.93 39.03 10.57 36.78 10.57ZM57.11 2.21L57.11 10.01L51.38 2.21L50.16 2.21L50.16 11.48L51.21 11.48L51.21 3.65L56.94 11.48L58.16 11.48L58.16 2.21ZM74.00 2.21L66.49 2.21L66.49 3.22L69.72 3.22L69.72 11.48L70.77 11.48L70.77 3.22L74.00 3.22ZM81.07 7.85L84.57 7.85L84.57 6.83L81.07 6.83ZM100.27 3.22L100.27 2.21L93.45 2.21L93.45 11.48L100.27 11.48L100.27 10.47L94.50 10.47L94.50 7.35L99.65 7.35L99.65 6.33L94.50 6.33L94.50 3.22ZM115.91 2.21L115.91 10.01L110.18 2.21L108.96 2.21L108.96 11.48L110.01 11.48L110.01 3.65L115.74 11.48L116.96 11.48L116.96 2.21ZM130.13 2.21L126.22 2.21L126.22 11.48L130.13 11.48C132.34 11.48 134.39 9.74 134.39 6.85C134.39 3.95 132.34 2.21 130.13 2.21ZM130.09 10.49L127.27 10.49L127.27 3.21L130.09 3.21C132.06 3.21 133.34 4.86 133.34 6.85C133.34 8.83 132.06 10.49 130.09 10.49ZM158.63 3.70L161.14 11.48L162.33 11.48L165.21 2.21L164.11 2.21L161.73 10.00L159.24 2.21L158.03 2.21L155.54 10.00L153.16 2.21L152.05 2.21L154.94 11.48L156.13 11.48ZM180.29 3.22L180.29 2.21L173.47 2.21L173.47 11.48L180.29 11.48L180.29 10.47L174.52 10.47L174.52 7.35L179.68 7.35L179.68 6.33L174.52 6.33L174.52 3.22ZM194.82 6.75C195.48 6.45 196.07 5.85 196.07 4.66C196.07 3.54 195.33 2.21 193.14 2.21L188.99 2.21L188.99 11.48L193.38 11.48C195.50 11.48 196.55 10.43 196.55 9.04C196.55 7.66 195.61 7 194.82 6.75ZM190.04 3.21L193.26 3.21C194.53 3.21 195.02 3.98 195.02 4.75C195.02 5.88 194.11 6.36 193.14 6.36L190.04 6.36ZM193.49 10.49L190.04 10.49L190.04 7.31L193.38 7.31C194.85 7.31 195.50 8.09 195.50 8.96C195.50 9.93 194.77 10.49 193.49 10.49ZM219.14 2.21L215.24 2.21L215.24 11.48L219.14 11.48C221.35 11.48 223.40 9.74 223.40 6.85C223.40 3.95 221.35 2.21 219.14 2.21ZM219.10 10.49L216.29 10.49L216.29 3.21L219.10 3.21C221.07 3.21 222.35 4.86 222.35 6.85C222.35 8.83 221.07 10.49 219.10 10.49ZM238.91 3.22L238.91 2.21L232.09 2.21L232.09 11.48L238.91 11.48L238.91 10.47L233.14 10.47L233.14 7.35L238.29 7.35L238.29 6.33L233.14 6.33L233.14 3.22ZM254.07 2.21L250.87 10.29L247.66 2.21L246.51 2.21L250.26 11.48L251.47 11.48L255.22 2.21ZM270.21 3.22L270.21 2.21L263.40 2.21L263.40 11.48L270.21 11.48L270.21 10.47L264.45 10.47L264.45 7.35L269.60 7.35L269.60 6.33L264.45 6.33L264.45 3.22ZM278.91 2.21L278.91 11.48L285.01 11.48L285.01 10.47L279.96 10.47L279.96 2.21ZM297.08 2.10C294.27 2.10 292.38 4.21 292.38 6.85C292.38 9.48 294.27 11.59 297.08 11.59C299.89 11.59 301.78 9.48 301.78 6.85C301.78 4.21 299.89 2.10 297.08 2.10ZM297.08 10.57C294.83 10.57 293.43 8.93 293.43 6.85C293.43 4.76 294.83 3.12 297.08 3.12C299.33 3.12 300.73 4.76 300.73 6.85C300.73 8.93 299.33 10.57 297.08 10.57ZM311.51 8.18L314.64 8.18C316.61 8.18 317.83 7.03 317.83 5.19C317.83 3.37 316.61 2.21 314.64 2.21L310.46 2.21L310.46 11.48L311.51 11.48ZM314.57 3.21C316.02 3.21 316.78 3.96 316.78 5.19C316.78 6.44 316.02 7.20 314.57 7.20L311.51 7.20L311.51 3.21ZM333.07 3.22L333.07 2.21L326.26 2.21L326.26 11.48L333.07 11.48L333.07 10.47L327.31 10.47L327.31 7.35L332.46 7.35L332.46 6.33L327.31 6.33L327.31 3.22ZM342.82 7.92L346.04 7.92L348.28 11.48L349.52 11.48L347.09 7.74C348.12 7.50 349.33 6.90 349.33 5.11C349.33 3.35 348.11 2.21 346.21 2.21L341.77 2.21L341.77 11.48L342.82 11.48ZM342.82 3.21L346.08 3.21C347.40 3.21 348.28 3.93 348.28 5.11C348.28 6.55 347.02 6.93 346.02 6.93L342.82 6.93Z"></path></g></svg>