<svg width="337" height="323" viewBox="0 0 337 323" fill="none" xmlns="http://www.w3.org/2000/svg">
<g clip-path="url(#clip0_69_289)">
<path d="M279.419 183.316C236.878 247.677 216.869 323 139.71 323C62.5502 323 0 260.461 0 183.316C0 106.171 69.7205 76.1085 139.71 43.6322C367.039 -61.853 374.608 39.3061 279.419 183.316Z" fill="#3F3D56"/>
<path d="M264.42 63.3422C278.858 63.3422 290.562 51.6402 290.562 37.205C290.562 22.7699 278.858 11.0679 264.42 11.0679C249.982 11.0679 238.278 22.7699 238.278 37.205C238.278 51.6402 249.982 63.3422 264.42 63.3422Z" fill="#E6E6E6"/>
<path d="M261.849 22.2083C263.505 22.2083 264.849 20.8654 264.849 19.2089C264.849 17.5524 263.505 16.2096 261.849 16.2096C260.192 16.2096 258.849 17.5524 258.849 19.2089C258.849 20.8654 260.192 22.2083 261.849 22.2083Z" fill="#CBCBCB"/>
<path d="M266.991 52.2017C268.648 52.2017 269.991 50.8588 269.991 49.2024C269.991 47.5459 268.648 46.203 266.991 46.203C265.335 46.203 263.991 47.5459 263.991 49.2024C263.991 50.8588 265.335 52.2017 266.991 52.2017Z" fill="#CBCBCB"/>
<path d="M278.562 34.6341C279.746 34.6341 280.705 33.675 280.705 32.4918C280.705 31.3085 279.746 30.3494 278.562 30.3494C277.379 30.3494 276.42 31.3085 276.42 32.4918C276.42 33.675 277.379 34.6341 278.562 34.6341Z" fill="#CBCBCB"/>
<path d="M254.135 46.203C257.922 46.203 260.991 43.1336 260.991 39.3473C260.991 35.5611 257.922 32.4917 254.135 32.4917C250.348 32.4917 247.278 35.5611 247.278 39.3473C247.278 43.1336 250.348 46.203 254.135 46.203Z" fill="#CBCBCB"/>
<path d="M174.423 81.7667C176.79 81.7667 178.708 79.8484 178.708 77.4819C178.708 75.1155 176.79 73.1971 174.423 73.1971C172.056 73.1971 170.137 75.1155 170.137 77.4819C170.137 79.8484 172.056 81.7667 174.423 81.7667Z" fill="#52EEC4"/>
<path d="M289.276 92.9072C291.643 92.9072 293.562 90.9889 293.562 88.6224C293.562 86.256 291.643 84.3376 289.276 84.3376C286.909 84.3376 284.991 86.256 284.991 88.6224C284.991 90.9889 286.909 92.9072 289.276 92.9072Z" fill="#52EEC4"/>
<path d="M238.278 99.3344C239.698 99.3344 240.849 98.1834 240.849 96.7635C240.849 95.3436 239.698 94.1926 238.278 94.1926C236.858 94.1926 235.707 95.3436 235.707 96.7635C235.707 98.1834 236.858 99.3344 238.278 99.3344Z" fill="#E6E6E6"/>
<path d="M40.2844 180.317C41.7045 180.317 42.8558 179.166 42.8558 177.746C42.8558 176.326 41.7045 175.175 40.2844 175.175C38.8643 175.175 37.7131 176.326 37.7131 177.746C37.7131 179.166 38.8643 180.317 40.2844 180.317Z" fill="#52EEC4"/>
<path d="M192.422 249.302C193.842 249.302 194.994 248.151 194.994 246.731C194.994 245.311 193.842 244.16 192.422 244.16C191.002 244.16 189.851 245.311 189.851 246.731C189.851 248.151 191.002 249.302 192.422 249.302Z" fill="#E6E6E6"/>
<path d="M232.707 173.048L231.424 174.322L230.149 173.039L229.294 173.889L230.568 175.172L229.285 176.446L230.135 177.302L231.418 176.028L232.693 177.311L233.548 176.461L232.274 175.178L233.557 173.904L232.707 173.048Z" fill="#52EEC4"/>
<path d="M62.5701 215.039L61.2866 216.313L60.0121 215.03L59.1563 215.88L60.4311 217.163L59.1476 218.437L59.9975 219.293L61.2806 218.018L62.5555 219.302L63.4113 218.452L62.1365 217.169L63.42 215.894L62.5701 215.039Z" fill="#E6E6E6"/>
<path d="M72.8555 140.484L71.572 141.758L70.2975 140.475L69.4417 141.324L70.7165 142.608L69.433 143.882L70.2829 144.738L71.566 143.463L72.8409 144.746L73.6967 143.897L72.4219 142.614L73.7054 141.339L72.8555 140.484Z" fill="#E6E6E6"/>
<path d="M296.991 61.2152L295.707 62.4895L294.433 61.2065L293.577 62.0559L294.852 63.3392L293.568 64.6138L294.418 65.4691L295.702 64.1949L296.976 65.4778L297.832 64.6284L296.557 63.3451L297.841 62.0705L296.991 61.2152Z" fill="#E6E6E6"/>
<path d="M195.852 96.7788L194.568 98.0535L193.293 96.7701L192.438 97.6199L193.712 98.9028L192.429 100.177L193.279 101.033L194.562 99.7585L195.837 101.042L196.692 100.192L195.418 98.9087L196.701 97.6345L195.852 96.7788Z" fill="#E6E6E6"/>
<path opacity="0.8" d="M204.753 160.312L217.774 145.071L230.795 129.83L238.146 121.226C238.553 120.75 237.925 120.007 237.519 120.483L224.497 135.724L211.476 150.965L204.125 159.569C203.718 160.045 204.346 160.788 204.753 160.312Z" fill="url(#paint0_linear_69_289)"/>
<path opacity="0.8" d="M181.611 215.157L194.632 199.916L207.653 184.675L215.004 176.071C215.411 175.595 214.783 174.852 214.376 175.328L201.355 190.569L188.334 205.811L180.983 214.415C180.576 214.891 181.204 215.633 181.611 215.157Z" fill="url(#paint1_linear_69_289)"/>
<path d="M115.925 130.828H140.353V140.438C140.353 142.094 139.695 143.682 138.524 144.853C137.353 146.023 135.764 146.681 134.108 146.681H122.169C120.513 146.681 118.925 146.023 117.754 144.853C116.583 143.682 115.925 142.094 115.925 140.438L115.925 130.828Z" fill="#2F2E41"/>
<path d="M148.495 258.514C142.933 264.149 137.361 264.187 131.782 258.696L127.496 220.808L124.496 258.775C118.92 263.287 113.724 263.894 109.068 258.943C104.627 226.139 102.213 195.664 106.068 172.39L97.9254 139.397L116.353 130.828C120.064 140.005 114.212 144.7 127.447 144.543C140.565 144.387 139.585 139.453 139.067 130.828L156.019 137.346C157.463 137.902 158.64 138.986 159.311 140.38C159.983 141.773 160.097 143.37 159.631 144.845L151.067 171.961C154.364 185.65 150.978 223.729 148.495 258.514Z" fill="#E6E6E6"/>
<path d="M122.782 291.507C122.782 291.507 109.101 292.705 107.268 291.95C107.152 291.903 107.04 291.851 106.93 291.795C104.207 290.405 104.124 286.511 106.669 284.817L112.068 281.223L107.354 255.943L125.567 256.157L122.782 291.507Z" fill="#2F2E41"/>
<path d="M133.067 291.721C133.067 291.721 146.748 292.919 148.581 292.165C148.696 292.117 148.809 292.065 148.918 292.009C151.642 290.619 151.725 286.725 149.179 285.031L143.781 281.438L150.424 256.157H131.353L133.067 291.721Z" fill="#2F2E41"/>
<path d="M100.925 201.526L103.637 212.372C103.97 213.705 103.875 215.109 103.364 216.384C102.854 217.66 101.954 218.742 100.793 219.478C99.8551 220.072 98.7811 220.417 97.6725 220.481C96.5639 220.545 95.4573 220.325 94.4571 219.843C93.4569 219.361 92.596 218.632 91.9557 217.725C91.3154 216.818 90.9167 215.763 90.7974 214.659L90.2113 209.239L88.0685 157.727C88.0685 153.442 89.3389 149.254 91.719 145.691C94.0991 142.128 97.4822 139.351 101.441 137.71L105.639 135.969L100.925 201.526Z" fill="#E6E6E6"/>
<path d="M169.066 157.299L169.053 157.603L167.322 199.183L166.987 207.217L166.923 208.811L166.336 214.231C166.24 215.122 165.961 215.983 165.518 216.762C165.075 217.541 164.476 218.22 163.759 218.757C163.042 219.295 162.222 219.679 161.35 219.887C160.478 220.094 159.573 220.12 158.69 219.963C157.808 219.805 156.968 219.468 156.221 218.973C155.474 218.477 154.838 217.833 154.351 217.081C153.864 216.329 153.536 215.485 153.389 214.601C153.243 213.717 153.279 212.812 153.496 211.943L156.209 201.098L156.149 200.292L155.789 195.254L151.495 135.541L155.695 137.28C159.651 138.925 163.032 141.704 165.411 145.266C167.79 148.828 169.062 153.015 169.066 157.299Z" fill="#E6E6E6"/>
<path d="M129.234 204.616C113.667 204.616 104.064 199.218 103.928 199.14L104.356 198.397C104.548 198.508 123.807 209.309 152.102 199.946L152.371 200.76C144.915 203.277 137.103 204.579 129.234 204.616Z" fill="#2F2E41"/>
<path d="M113.819 244.12C110.393 236.413 110.376 202.915 110.377 201.493L111.234 201.493C111.233 201.84 111.25 236.23 114.602 243.772L113.819 244.12Z" fill="#2F2E41"/>
<path d="M115.601 244.465C112.549 244.465 110.521 243.816 109.199 243.07C106.793 241.713 106.296 239.864 106.276 239.787L107.107 239.574L106.691 239.68L107.106 239.572C107.123 239.637 107.557 241.176 109.658 242.345C111.973 243.632 116.631 244.592 125.677 241.857L125.924 242.678C121.595 243.986 118.221 244.465 115.601 244.465Z" fill="#2F2E41"/>
<path d="M107.946 134.915L107.09 134.957L110.377 202.069L111.233 202.027L107.946 134.915Z" fill="#2F2E41"/>
<path d="M142.887 244.12L142.104 243.772C145.456 236.23 145.473 201.84 145.472 201.493L146.329 201.493C146.33 202.915 146.313 236.413 142.887 244.12Z" fill="#2F2E41"/>
<path d="M141.105 244.465C138.485 244.465 135.112 243.987 130.782 242.677L131.029 241.857C140.075 244.592 144.732 243.632 147.048 242.345C149.149 241.176 149.582 239.637 149.6 239.572L150.43 239.786C150.409 239.864 149.913 241.713 147.506 243.07C146.185 243.816 144.156 244.465 141.105 244.465Z" fill="#2F2E41"/>
<path d="M148.757 134.915L145.476 202.027L146.332 202.069L149.613 134.957L148.757 134.915Z" fill="#2F2E41"/>
<path d="M140.301 144.967L133.924 154.394H120.21L115.625 144.967H117.639L121.068 152.68H132.638L138.21 144.967H140.301Z" fill="#6C63FF"/>
<path d="M155.781 149.68L155.892 149.903L155.781 150.109V149.68Z" fill="black"/>
<path d="M169.923 157.299L169.91 157.603L161.78 159.964L156.749 149.903L161.896 140.468C164.404 142.498 166.427 145.063 167.815 147.975C169.204 150.887 169.924 154.073 169.923 157.299Z" fill="#52EEC4"/>
<path d="M87.5414 157.299L87.5543 157.603L95.684 159.964L100.715 149.903L95.5683 140.468C93.0602 142.498 91.0378 145.063 89.649 147.975C88.2602 150.887 87.5401 154.073 87.5414 157.299Z" fill="#52EEC4"/>
<path d="M128.139 137.897C140.683 137.897 150.852 127.73 150.852 115.188C150.852 102.646 140.683 92.4786 128.139 92.4786C115.594 92.4786 105.425 102.646 105.425 115.188C105.425 127.73 115.594 137.897 128.139 137.897Z" fill="#E6E6E6"/>
<path d="M128.139 134.898C137.369 134.898 144.852 127.416 144.852 118.187C144.852 108.958 137.369 101.477 128.139 101.477C118.908 101.477 111.425 108.958 111.425 118.187C111.425 127.416 118.908 134.898 128.139 134.898Z" fill="#2F2E41"/>
<path d="M167.566 199.183L167.218 207.217L156.226 201.312L155.941 200.292L155.566 195.254L167.566 199.183Z" fill="#6C63FF"/>
<path d="M89.384 199.183L89.7497 207.217L101.303 201.312L101.603 200.292L101.997 195.254L89.384 199.183Z" fill="#6C63FF"/>
<path d="M134.152 154.822H119.942L112.074 138.653L111.67 132.837L112.525 132.777L112.918 138.427L120.479 153.965H133.697L143.392 139.635L145.456 133.309L146.272 133.574L144.136 140.066L134.152 154.822Z" fill="#2F2E41"/>
</g>
<defs>
<linearGradient id="paint0_linear_69_289" x1="203.993" y1="140.398" x2="238.278" y2="140.398" gradientUnits="userSpaceOnUse">
<stop stop-color="white"/>
<stop offset="1" stop-color="white" stop-opacity="0.3"/>
</linearGradient>
<linearGradient id="paint1_linear_69_289" x1="180.851" y1="195.243" x2="215.136" y2="195.243" gradientUnits="userSpaceOnUse">
<stop stop-color="white"/>
<stop offset="1" stop-color="white" stop-opacity="0.3"/>
</linearGradient>
<clipPath id="clip0_69_289">
<rect width="337" height="323" fill="white"/>
</clipPath>
</defs>
</svg>
