<svg width="353" height="310" viewBox="0 0 353 310" fill="none" xmlns="http://www.w3.org/2000/svg">
<g clip-path="url(#clip0_69_237)">
<path d="M225.306 297.958L219.055 297.331L218.498 272.894L227.724 273.82L225.306 297.958Z" fill="#9E616A"/>
<path d="M226.294 304.184L206.136 302.161L206.162 301.906C206.371 299.823 207.397 297.909 209.016 296.583C210.635 295.258 212.713 294.631 214.794 294.839L214.794 294.839L227.106 296.075L226.294 304.184Z" fill="#2F2E41"/>
<path d="M135.261 202.48H11.0999C8.15705 202.477 5.33567 201.305 3.25475 199.222C1.17383 197.139 0.00332175 194.314 0 191.368V11.1119C0.00332175 8.16586 1.17383 5.34144 3.25475 3.25827C5.33567 1.17511 8.15705 0.00332534 11.0999 0H135.261C138.204 0.00332533 141.025 1.17511 143.106 3.25827C145.187 5.34144 146.358 8.16586 146.361 11.1119V191.368C146.358 194.314 145.187 197.139 143.106 199.222C141.025 201.305 138.204 202.477 135.261 202.48Z" fill="#E4E4E4"/>
<path d="M135.48 195.39H10.8814C9.97424 195.389 9.10453 195.028 8.46306 194.386C7.8216 193.744 7.46077 192.873 7.45973 191.965V10.515C7.46077 9.60682 7.8216 8.73616 8.46306 8.09401C9.10453 7.45185 9.97424 7.09064 10.8814 7.0896H135.48C136.387 7.09064 137.257 7.45185 137.898 8.09401C138.54 8.73616 138.9 9.60682 138.901 10.515V191.965C138.9 192.873 138.54 193.744 137.898 194.386C137.257 195.028 136.387 195.389 135.48 195.39Z" fill="white"/>
<path d="M72.7085 4.34834C73.23 4.34834 73.6527 3.92512 73.6527 3.40305C73.6527 2.88098 73.23 2.45776 72.7085 2.45776C72.1869 2.45776 71.7642 2.88098 71.7642 3.40305C71.7642 3.92512 72.1869 4.34834 72.7085 4.34834Z" fill="white"/>
<path d="M127.382 103.074H45.0782V106.136H127.382V103.074Z" fill="#E4E4E4"/>
<path d="M127.382 112.769H45.0782V115.831H127.382V112.769Z" fill="#E4E4E4"/>
<path d="M127.382 122.464H45.0782V125.526H127.382V122.464Z" fill="#E4E4E4"/>
<path d="M37.626 104.966H18.9788V123.634H37.626V104.966Z" fill="#E4E4E4"/>
<path d="M127.382 143.707H45.0782V146.768H127.382V143.707Z" fill="#E4E4E4"/>
<path d="M127.382 153.402H45.0782V156.463H127.382V153.402Z" fill="#E4E4E4"/>
<path d="M127.382 163.097H45.0782V166.158H127.382V163.097Z" fill="#E4E4E4"/>
<path d="M37.626 145.599H18.9788V164.266H37.626V145.599Z" fill="#E4E4E4"/>
<path d="M87.3605 32.9598L55.1197 45.4425L67.1572 76.6005L99.398 64.1178L87.3605 32.9598Z" fill="#52EEC4"/>
<path d="M59.3411 75.4638L46.3004 41.7091L81.194 28.1991L94.2347 61.9538L59.3411 75.4638ZM47.626 42.2958L59.9273 74.1367L92.909 61.3671L80.6078 29.5262L47.626 42.2958Z" fill="#3F3D56"/>
<path d="M253.83 303.974C242.021 303.974 232.414 285.118 232.414 261.942C232.383 255.411 233.19 248.902 234.815 242.576C235.037 241.729 235.278 240.89 235.531 240.079C239.447 227.451 246.288 219.911 253.83 219.911C265.639 219.911 275.247 238.766 275.247 261.942C275.247 285.118 265.639 303.974 253.83 303.974ZM253.83 220.937C246.866 220.937 240.229 228.389 236.51 240.385C236.261 241.181 236.025 242.005 235.807 242.834C234.204 249.075 233.409 255.496 233.439 261.94C233.439 284.553 242.587 302.948 253.83 302.948C265.074 302.948 274.222 284.553 274.222 261.942C274.222 239.332 265.074 220.937 253.83 220.937Z" fill="#3F3D56"/>
<path d="M226.707 304.736L203.077 302.32L203.171 301.656L226.802 304.073L226.707 304.736Z" fill="#3F3D56"/>
<path d="M259.014 286.848C254.528 286.848 251.144 276.14 251.144 261.942C251.144 247.744 254.528 237.037 259.014 237.037C263.501 237.037 266.885 247.744 266.885 261.942C266.885 276.14 263.501 286.848 259.014 286.848ZM259.014 238.063C255.722 238.063 252.169 247.193 252.169 261.942C252.169 276.692 255.722 285.822 259.014 285.822C262.307 285.822 265.86 276.692 265.86 261.942C265.86 247.193 262.307 238.063 259.014 238.063Z" fill="#3F3D56"/>
<path d="M259.851 267.545C261.421 267.545 262.694 265.036 262.694 261.942C262.694 258.848 261.421 256.34 259.851 256.34C258.281 256.34 257.008 258.848 257.008 261.942C257.008 265.036 258.281 267.545 259.851 267.545Z" fill="#CACACA"/>
<path d="M302.996 304.492C290.818 304.492 280.911 285.337 280.911 261.791C280.882 255.287 281.678 248.806 283.281 242.503C283.523 241.58 283.779 240.687 284.041 239.845C288.066 226.85 295.152 219.091 302.996 219.091C315.174 219.091 325.081 238.246 325.081 261.791C325.081 285.337 315.174 304.492 302.996 304.492ZM302.996 220.117C295.735 220.117 288.847 227.793 285.02 240.149C284.762 240.978 284.511 241.856 284.274 242.76C282.693 248.978 281.907 255.372 281.936 261.789C281.936 284.771 291.384 303.466 302.996 303.466C314.609 303.466 324.057 284.771 324.057 261.791C324.057 238.812 314.609 220.117 302.996 220.117Z" fill="#3F3D56"/>
<path d="M308.18 286.696C303.693 286.696 300.31 275.99 300.31 261.791C300.31 247.593 303.693 236.886 308.18 236.886C312.667 236.886 316.051 247.593 316.051 261.791C316.051 275.99 312.667 286.696 308.18 286.696ZM308.18 237.913C304.888 237.913 301.335 247.042 301.335 261.791C301.335 276.541 304.888 285.67 308.18 285.67C311.473 285.67 315.026 276.541 315.026 261.791C315.026 247.042 311.473 237.913 308.18 237.913Z" fill="#3F3D56"/>
<path d="M309.017 267.394C310.587 267.394 311.859 264.885 311.859 261.791C311.859 258.697 310.587 256.189 309.017 256.189C307.446 256.189 306.174 258.697 306.174 261.791C306.174 264.885 307.446 267.394 309.017 267.394Z" fill="#CACACA"/>
<path d="M352.488 304.702H157.239C157.103 304.702 156.973 304.648 156.876 304.552C156.78 304.455 156.726 304.325 156.726 304.189C156.726 304.053 156.78 303.922 156.876 303.826C156.973 303.73 157.103 303.676 157.239 303.676H352.488C352.623 303.676 352.754 303.73 352.85 303.826C352.946 303.922 353 304.053 353 304.189C353 304.325 352.946 304.455 352.85 304.552C352.754 304.648 352.623 304.702 352.488 304.702Z" fill="#CACACA"/>
<path d="M228.285 107.418C228.014 108.122 227.901 108.877 227.953 109.629C228.006 110.382 228.222 111.113 228.587 111.773C228.952 112.433 229.458 113.004 230.067 113.447C230.677 113.89 231.376 114.194 232.116 114.337L234.727 132.482L241.843 126.157L238.273 109.896C238.431 108.636 238.122 107.362 237.404 106.315C236.686 105.268 235.609 104.521 234.378 104.216C233.147 103.911 231.847 104.068 230.724 104.658C229.601 105.248 228.733 106.23 228.285 107.418Z" fill="#9E616A"/>
<path d="M253.663 178.755L299.484 178.588V196.659L253.663 198.51V178.755Z" fill="#3F3D56"/>
<path d="M243.22 302.77L237.002 301.872L237.503 277.434L246.681 278.76L243.22 302.77Z" fill="#9E616A"/>
<path d="M243.936 309.034L223.886 306.137L223.922 305.883C224.221 303.811 225.33 301.943 227.004 300.689C228.679 299.436 230.783 298.899 232.852 299.198L245.099 300.967L243.936 309.034Z" fill="#2F2E41"/>
<path d="M214.53 240.047L213.863 240.01L215.887 203.198H257.342V203.867H216.52L214.53 240.047Z" fill="#3F3D56"/>
<path d="M218.907 304.59L218.796 305.251L246.924 310L247.035 309.339L218.907 304.59Z" fill="#3F3D56"/>
<path d="M285.186 240.082C284.935 240.888 284.699 241.712 284.477 242.552L283.778 242.629L262.025 245.05L212.19 240.028L264.031 237.349L284.531 239.998L285.186 240.082Z" fill="#3F3D56"/>
<path d="M273.791 115.969C273.791 115.969 266.547 113.657 261.89 122.906C257.233 132.154 249.989 142.327 249.989 142.327L254.129 143.252C254.129 143.252 255.164 136.778 257.751 135.853L256.716 144.177C256.716 144.177 287.761 153.888 301.731 143.252L301.214 140.015C301.214 140.015 303.284 140.478 303.284 143.252L304.836 141.865C304.836 141.865 303.284 139.09 298.627 135.391C295.57 132.963 294.52 128.343 294.159 125.455C293.865 122.994 292.778 120.695 291.062 118.908C287.967 115.702 282.328 112.295 273.791 115.969Z" fill="#2F2E41"/>
<path d="M247.409 216.853L246.398 220.458C246.398 220.458 226.035 215.513 223.382 228.298C220.729 241.083 217.091 280.653 217.091 280.653L227.374 282.765L237.139 239.629L276.691 230.992L274.101 208.646L247.409 216.853Z" fill="#2F2E41"/>
<path d="M264.533 222.785C264.533 222.785 237.107 217.093 235.1 230.82C233.094 244.548 236.104 270.664 236.438 271.334C236.773 272.004 235.1 284.392 235.1 284.392L247.141 286.066C247.141 286.066 254.834 249.57 251.489 240.195L274.119 238.794C281.93 238.31 288.312 232.133 288.761 224.311C288.933 221.317 288.184 218.599 285.604 217.093C277.577 212.405 262.861 212.405 262.861 212.405L264.533 222.785Z" fill="#2F2E41"/>
<path d="M277.577 149.372C284.227 149.372 289.618 143.975 289.618 137.318C289.618 130.661 284.227 125.265 277.577 125.265C270.927 125.265 265.537 130.661 265.537 137.318C265.537 143.975 270.927 149.372 277.577 149.372Z" fill="#A0616A"/>
<path d="M266.205 156.446L258.513 155.485L252.857 168.851C252.857 168.851 244.967 217.929 246.974 218.599C248.1 218.997 249.294 219.168 250.486 219.101L288.456 221.08C288.456 221.08 290.15 213.434 289.481 207.742C288.812 202.05 296.642 170.887 296.642 170.887L295.136 156.657L288.73 156.539L284.117 152.948L271.282 152.908L266.205 156.446Z" fill="#E4E4E4"/>
<path d="M258.847 157.159L258.513 155.15L249.148 143.766L239.533 111.906L230.309 121.654L240.118 152.806L253.496 169.883L258.847 157.159Z" fill="#E4E4E4"/>
<path d="M261.759 138.76C261.759 138.76 265.898 133.062 269.52 132.026C273.142 130.99 273.66 125.81 273.66 125.81C273.66 125.81 282.973 136.17 288.665 136.688C294.356 137.206 289.182 124.256 289.182 124.256L278.834 121.667L269.003 122.702L261.242 127.882L261.759 138.76Z" fill="#2F2E41"/>
<path d="M300.488 220.285L300.164 206.545H269.039L268.045 243.385L267.376 243.367L268.388 205.876H300.811L300.822 206.2L301.157 220.262L300.488 220.285Z" fill="#3F3D56"/>
<path d="M299.819 201.524H299.15V175.966L309.946 179.104L309.759 179.746L299.819 176.858V201.524Z" fill="#3F3D56"/>
<path d="M304.501 175.407L311.525 178.086L310.187 181.769L304.501 179.425V175.407Z" fill="#3F3D56"/>
<path d="M276.741 204.202V209.559H296.668V204.558L276.741 204.202Z" fill="#3F3D56"/>
<path d="M225.568 201.523V206.88H245.496V201.879L225.568 201.523Z" fill="#3F3D56"/>
<path d="M262.025 188.525H261.862V184.066C261.862 183.382 261.591 182.725 261.107 182.241C260.624 181.757 259.968 181.486 259.284 181.486H249.849C249.165 181.486 248.509 181.757 248.026 182.241C247.543 182.725 247.271 183.382 247.271 184.066V208.526C247.271 209.21 247.543 209.867 248.026 210.35C248.509 210.834 249.165 211.106 249.849 211.106H259.284C259.968 211.106 260.624 210.834 261.107 210.35C261.591 209.867 261.862 209.21 261.862 208.526V191.698H262.025L262.025 188.525Z" fill="#3F3D56"/>
<path d="M254.648 190.664C255.52 190.664 256.227 189.957 256.227 189.084C256.227 188.211 255.52 187.503 254.648 187.503C253.776 187.503 253.069 188.211 253.069 189.084C253.069 189.957 253.776 190.664 254.648 190.664Z" fill="#D0CDE1"/>
<path opacity="0.15" d="M292.461 173.398L291.457 192.483L276.741 195.497L290.12 190.139L292.461 173.398Z" fill="black"/>
<path d="M232.266 105.585V65.207H350.133V95.067H242.773L232.266 105.585Z" fill="white"/>
<path d="M232.266 105.585V65.207H350.133V95.067H242.773L232.266 105.585ZM233.291 66.2331V103.108L242.348 94.041H349.108V66.2331L233.291 66.2331Z" fill="#3F3D56"/>
<path d="M324.578 72.7211H258.846V78.0564H324.578V72.7211Z" fill="#6C63FF"/>
<path d="M324.578 80.7241H258.846V86.0595H324.578V80.7241Z" fill="#6C63FF"/>
<path d="M257.635 207.07C258.298 207.428 259.031 207.637 259.783 207.682C260.535 207.726 261.288 207.605 261.988 207.327C262.688 207.048 263.319 206.62 263.835 206.071C264.352 205.522 264.743 204.867 264.979 204.151L283.29 203.879L277.934 196.004L261.367 197.47C260.139 197.152 258.837 197.296 257.708 197.875C256.579 198.454 255.701 199.427 255.241 200.61C254.781 201.794 254.771 203.105 255.212 204.295C255.653 205.486 256.515 206.473 257.635 207.07Z" fill="#9E616A"/>
<path d="M291.457 159.001L294.467 156.657C294.467 156.657 299.484 153.978 300.488 163.353C301.491 172.728 308.849 203.867 301.491 204.202C294.133 204.537 266.694 205.276 266.694 205.276L265.669 196.041L292.795 193.487L291.457 159.001Z" fill="#E4E4E4"/>
<path d="M47.7368 89.4985C47.5833 89.4986 47.4336 89.4506 47.3086 89.3613C47.1837 89.272 47.0897 89.1459 47.0399 89.0005C46.99 88.8552 46.9868 88.6979 47.0307 88.5506C47.0745 88.4033 47.1632 88.2734 47.2844 88.1791L51.2967 85.0564C51.4579 84.931 51.5913 84.7733 51.6885 84.5935C51.7857 84.4137 51.8446 84.2157 51.8614 84.0119C51.8781 83.8081 51.8524 83.6031 51.7859 83.4098C51.7194 83.2165 51.6135 83.0391 51.4749 82.8889L48.1064 79.2377C48.0408 79.1666 47.9898 79.0833 47.9563 78.9924C47.9229 78.9016 47.9076 78.805 47.9114 78.7083C47.9152 78.6115 47.938 78.5165 47.9785 78.4286C48.019 78.3406 48.0764 78.2616 48.1474 78.1958C48.2184 78.1301 48.3017 78.0791 48.3924 78.0456C48.4832 78.012 48.5796 77.9968 48.6762 78.0006C48.7729 78.0044 48.8678 78.0272 48.9556 78.0678C49.0434 78.1083 49.1224 78.1658 49.188 78.2369L54.1904 83.6587C54.2596 83.7337 54.3125 83.8223 54.3457 83.9188C54.379 84.0153 54.3918 84.1177 54.3835 84.2195C54.3751 84.3213 54.3458 84.4202 54.2972 84.51C54.2487 84.5998 54.1821 84.6786 54.1016 84.7413L48.1884 89.3433C48.0593 89.444 47.9004 89.4986 47.7368 89.4985Z" fill="#6C63FF"/>
</g>
<defs>
<clipPath id="clip0_69_237">
<rect width="353" height="310" fill="white"/>
</clipPath>
</defs>
</svg>
