<svg width="343" height="271" viewBox="0 0 343 271" fill="none" xmlns="http://www.w3.org/2000/svg">
<g clip-path="url(#clip0_69_128)">
<path d="M207.111 119.563H128.52C126.343 119.561 124.255 118.693 122.715 117.151C121.176 115.61 120.31 113.519 120.307 111.338V8.62188C120.31 6.44131 121.176 4.35076 122.715 2.80887C124.255 1.26698 126.343 0.399674 128.52 0.397217H207.111C209.288 0.399675 211.376 1.26698 212.916 2.80887C214.455 4.35076 215.321 6.44131 215.324 8.62188V111.338C215.321 113.519 214.455 115.61 212.916 117.151C211.376 118.693 209.288 119.561 207.111 119.563Z" fill="#F0F0F0"/>
<path d="M207.111 119.96H128.52C126.238 119.958 124.049 119.048 122.435 117.432C120.821 115.816 119.913 113.624 119.911 111.338V8.62188C119.913 6.33602 120.821 4.14453 122.435 2.52818C124.049 0.911829 126.238 0.00261463 128.52 0H207.111C209.393 0.00257466 211.582 0.911768 213.196 2.52812C214.81 4.14448 215.718 6.33599 215.721 8.62188V111.338C215.718 113.624 214.81 115.816 213.196 117.432C211.582 119.048 209.393 119.958 207.111 119.96ZM128.52 0.79444C126.448 0.796778 124.461 1.6222 122.996 3.08963C121.53 4.55705 120.706 6.54663 120.704 8.62188V111.338C120.706 113.413 121.53 115.403 122.996 116.87C124.461 118.338 126.448 119.163 128.52 119.166H207.111C209.183 119.163 211.17 118.338 212.635 116.871C214.101 115.403 214.925 113.413 214.927 111.338V8.62188C214.925 6.5466 214.101 4.557 212.635 3.08957C211.17 1.62215 209.183 0.796741 207.111 0.79444H128.52Z" fill="#6C63FF"/>
<path d="M334.787 119.563H256.196C254.019 119.561 251.931 118.693 250.391 117.151C248.852 115.61 247.986 113.519 247.983 111.338V8.62188C247.986 6.44131 248.852 4.35076 250.391 2.80887C251.931 1.26698 254.019 0.399674 256.196 0.397217H334.787C336.964 0.399674 339.052 1.26698 340.592 2.80887C342.131 4.35076 342.997 6.44131 343 8.62188V111.338C342.998 113.519 342.131 115.61 340.592 117.151C339.052 118.693 336.964 119.561 334.787 119.563Z" fill="#F0F0F0"/>
<path d="M166.425 132.275C174.27 132.275 180.63 125.907 180.63 118.051C180.63 110.194 174.27 103.826 166.425 103.826C158.58 103.826 152.22 110.194 152.22 118.051C152.22 125.907 158.58 132.275 166.425 132.275Z" fill="#52EEC4"/>
<path d="M164.487 125.454C164.242 125.454 164 125.397 163.781 125.287C163.561 125.177 163.37 125.018 163.223 124.821L159.348 119.647C159.223 119.48 159.133 119.291 159.081 119.09C159.03 118.889 159.019 118.679 159.048 118.473C159.077 118.268 159.147 118.07 159.252 117.891C159.358 117.712 159.498 117.556 159.664 117.431C159.83 117.307 160.019 117.216 160.22 117.164C160.421 117.113 160.63 117.101 160.836 117.131C161.041 117.16 161.239 117.23 161.417 117.336C161.596 117.442 161.752 117.582 161.876 117.748L164.411 121.133L170.923 111.352C171.156 111.004 171.517 110.763 171.928 110.681C172.338 110.6 172.764 110.685 173.111 110.917C173.459 111.149 173.701 111.51 173.784 111.921C173.867 112.331 173.783 112.758 173.552 113.107L165.802 124.749C165.662 124.96 165.473 125.134 165.252 125.256C165.031 125.379 164.784 125.446 164.531 125.454C164.516 125.454 164.502 125.454 164.487 125.454Z" fill="white"/>
<path d="M154.101 174.495H3.37157C2.47769 174.494 1.62072 174.138 0.988648 173.505C0.35658 172.872 0.00103091 172.014 0 171.119V34.475C0.000997382 33.5798 0.356536 32.7216 0.988612 32.0887C1.62069 31.4557 2.47768 31.0996 3.37157 31.0986H154.101C154.994 31.0996 155.851 31.4557 156.484 32.0886C157.116 32.7216 157.471 33.5798 157.472 34.475V171.119C157.471 172.014 157.116 172.872 156.484 173.505C155.851 174.138 154.994 174.494 154.101 174.495Z" fill="#3F3D56"/>
<path d="M150.927 171.317H6.54485C5.65097 171.316 4.794 170.96 4.16193 170.327C3.52986 169.694 3.17431 168.836 3.17328 167.941V37.6529C3.17428 36.7577 3.52981 35.8995 4.16189 35.2665C4.79397 34.6335 5.65096 34.2775 6.54485 34.2765H150.927C151.821 34.2775 152.678 34.6335 153.31 35.2665C153.942 35.8995 154.298 36.7577 154.299 37.6529V167.941C154.298 168.836 153.942 169.694 153.31 170.327C152.678 170.96 151.821 171.316 150.927 171.317Z" fill="white"/>
<path d="M13.8805 48.431C30.8721 48.1351 47.8656 48.0926 64.8609 48.3034C81.8537 48.5156 98.8408 48.9822 115.822 49.7033C125.351 50.108 134.876 50.5928 144.398 51.1577C145.163 51.2031 145.16 50.0112 144.398 49.9661C127.433 48.9608 110.456 48.2086 93.4669 47.7094C76.48 47.2116 59.4882 46.9684 42.4916 46.9796C32.954 46.986 23.417 47.0725 13.8805 47.2393C13.1156 47.2526 13.1132 48.4443 13.8805 48.431Z" fill="#3F3D56"/>
<path d="M132.296 40.959L139.726 40.4052C140.485 40.3486 140.491 39.1565 139.726 39.2135L132.296 39.7673C131.537 39.8239 131.531 41.016 132.296 40.959Z" fill="#3F3D56"/>
<path d="M132.296 48.1089L139.726 47.5551C140.485 47.4985 140.491 46.3064 139.726 46.3634L132.296 46.9172C131.537 46.9738 131.531 48.1659 132.296 48.1089Z" fill="#3F3D56"/>
<path d="M131.737 44.8436L142.301 45.8047C143.063 45.8741 143.059 44.682 142.301 44.613L131.737 43.652C130.975 43.5826 130.98 44.7747 131.737 44.8436Z" fill="#3F3D56"/>
<path d="M18.2776 39.3564C17.7609 39.3532 17.2547 39.5023 16.8221 39.7853C16.3895 40.0682 16.0497 40.4724 15.8449 40.9475C15.6158 41.4124 15.5451 41.9397 15.6435 42.4487C15.742 42.9577 16.0042 43.4204 16.3901 43.7661C16.7529 44.0751 17.188 44.287 17.6547 44.382C18.1215 44.477 18.6047 44.4519 19.0591 44.3091C19.5239 44.1465 19.9269 43.8437 20.2127 43.4423C20.4985 43.0409 20.653 42.5607 20.655 42.0677C20.6758 41.5207 20.5278 40.9807 20.2313 40.5209C19.9347 40.0612 19.504 39.704 18.9976 39.4981C18.8454 39.4567 18.6831 39.4772 18.546 39.5551C18.4089 39.6331 18.3081 39.7622 18.2657 39.9142C18.2282 40.0664 18.2503 40.2273 18.3276 40.3636C18.4049 40.4999 18.5315 40.6014 18.6812 40.6472C18.7849 40.6873 18.5865 40.5961 18.6833 40.6489C18.7231 40.6706 18.7637 40.6903 18.8028 40.7135C18.836 40.7332 18.8678 40.7547 18.9002 40.7759C19.0112 40.8485 18.8459 40.7226 18.9169 40.7878C18.9785 40.8444 19.0395 40.8997 19.0955 40.9621C19.1166 40.9857 19.1995 41.0514 19.1351 41.0055C19.0858 40.9704 19.1161 40.9786 19.1351 41.0068C19.1495 41.0282 19.1647 41.049 19.179 41.0705C19.2254 41.1408 19.2675 41.2138 19.3053 41.2892C19.314 41.3066 19.322 41.3244 19.3309 41.3418C19.3476 41.3743 19.3717 41.3828 19.3325 41.3421C19.2951 41.3032 19.3189 41.3058 19.3323 41.3433C19.3411 41.3679 19.3507 41.3922 19.3593 41.4168C19.3872 41.4972 19.4106 41.5791 19.4295 41.662C19.4382 41.7004 19.4452 41.739 19.4527 41.7776C19.4793 41.9144 19.4488 41.6925 19.4552 41.7941C19.4606 41.879 19.4669 41.963 19.4654 42.0482C19.4647 42.0871 19.463 42.1261 19.4603 42.165C19.4589 42.1844 19.4568 42.2037 19.4555 42.2231C19.4493 42.3166 19.4491 42.189 19.4622 42.1802C19.435 42.2596 19.417 42.3418 19.4084 42.4253C19.3978 42.4624 19.3851 42.4986 19.3733 42.5352C19.3319 42.6631 19.4121 42.4655 19.368 42.5529C19.3317 42.628 19.2911 42.7009 19.2464 42.7713C19.2271 42.8008 19.154 42.8673 19.2137 42.821C19.2786 42.7707 19.1797 42.8573 19.1586 42.8796C19.1315 42.9082 19.1034 42.9358 19.0742 42.9625C19.0556 42.9807 19.0359 42.9979 19.0152 43.0138C19.0115 43.0119 19.1146 42.9448 19.059 42.9804C18.9883 43.0255 18.9214 43.0738 18.8469 43.1131C18.8382 43.1177 18.743 43.1619 18.7434 43.1635C18.7392 43.1474 18.8658 43.1188 18.7789 43.1469C18.7607 43.1528 18.7428 43.16 18.7246 43.1661C18.6455 43.1928 18.5648 43.2143 18.4829 43.2306C18.4641 43.2343 18.4443 43.2362 18.4259 43.241C18.3644 43.2569 18.4846 43.2317 18.4883 43.2337C18.4428 43.2318 18.3973 43.2358 18.3529 43.2457C18.2684 43.2506 18.1838 43.2506 18.0994 43.2457C18.0799 43.2446 18.0604 43.2427 18.0408 43.2415C17.9955 43.2389 17.9622 43.2062 18.0226 43.2417C18.0691 43.2691 18.0652 43.2491 18.024 43.2415C18.0047 43.2379 17.9853 43.2349 17.9661 43.2313C17.8825 43.2156 17.7999 43.1953 17.7186 43.1705C17.6748 43.1572 17.6319 43.1417 17.5887 43.1265C17.5699 43.1211 17.5516 43.114 17.534 43.1055C17.5337 43.1005 17.6453 43.1588 17.5864 43.127C17.5121 43.0869 17.4352 43.0533 17.3626 43.0095C17.3239 42.9861 17.2867 42.9606 17.2491 42.9356C17.2325 42.9256 17.2167 42.9143 17.202 42.9018C17.2032 42.8968 17.2942 42.9812 17.2464 42.9356C17.186 42.878 17.1214 42.8264 17.0642 42.765C17.0511 42.7509 17.0387 42.7362 17.0257 42.7222L17.0131 42.7077C16.9808 42.6682 16.9802 42.6684 17.0113 42.7083C17.0428 42.7176 17.0414 42.7522 17.0114 42.7072C17.0008 42.6912 16.9894 42.6756 16.9788 42.6595C16.9305 42.5906 16.8893 42.5169 16.8558 42.4396C16.8587 42.4374 16.9074 42.583 16.8702 42.4731C16.8631 42.4523 16.8552 42.4319 16.8484 42.4111C16.8347 42.3698 16.8226 42.3281 16.8122 42.2859C16.802 42.2441 16.7967 42.2009 16.7863 42.1593C16.7688 42.0891 16.7965 42.2147 16.7934 42.2115C16.7834 42.2017 16.7877 42.1409 16.7869 42.1263C16.7822 42.0328 16.7928 41.9421 16.7945 41.8491C16.7958 41.7772 16.7885 41.9052 16.787 41.9015C16.7874 41.8799 16.7912 41.8586 16.7983 41.8382C16.8091 41.7892 16.8191 41.7402 16.8323 41.6918C16.8474 41.6363 16.8648 41.5815 16.8844 41.5273C16.8918 41.5071 16.9007 41.4871 16.9076 41.4667C16.9326 41.3919 16.858 41.557 16.8991 41.4896C16.9557 41.3967 16.9979 41.2963 17.058 41.2046C17.0722 41.1829 17.1588 41.0618 17.1129 41.123C17.0671 41.1838 17.1599 41.0684 17.1775 41.0489C17.2505 40.9675 17.3363 40.9007 17.4118 40.8227C17.4566 40.7766 17.3806 40.8455 17.3761 40.8487C17.3995 40.8319 17.4225 40.8145 17.4461 40.7982C17.4875 40.7697 17.5298 40.7427 17.5731 40.7173C17.6219 40.6887 17.6771 40.6673 17.7244 40.637C17.7803 40.6012 17.6817 40.6527 17.6799 40.6538C17.7055 40.6411 17.7321 40.6309 17.7596 40.6234C17.8057 40.607 18.0061 40.5204 18.0481 40.5475C18.0462 40.5463 17.896 40.5596 18.0174 40.5518C18.0461 40.55 18.0747 40.5472 18.1034 40.546C18.1616 40.5436 18.2195 40.545 18.2776 40.548C18.4351 40.547 18.5858 40.4839 18.6972 40.3724C18.8085 40.2609 18.8716 40.1099 18.8726 39.9522C18.8692 39.7952 18.8055 39.6456 18.6946 39.5346C18.5837 39.4236 18.4344 39.3597 18.2776 39.3564Z" fill="#3F3D56"/>
<path d="M26.6074 39.3564C26.0907 39.3532 25.5845 39.5023 25.1519 39.7853C24.7193 40.0682 24.3794 40.4724 24.1746 40.9475C23.9456 41.4124 23.8748 41.9397 23.9733 42.4487C24.0718 42.9577 24.334 43.4204 24.7199 43.7661C25.0827 44.0751 25.5178 44.287 25.9845 44.382C26.4513 44.477 26.9345 44.4519 27.3889 44.3091C27.8537 44.1465 28.2567 43.8437 28.5425 43.4423C28.8283 43.0409 28.9828 42.5607 28.9848 42.0677C29.0055 41.5207 28.8576 40.9807 28.561 40.5209C28.2645 40.0612 27.8337 39.704 27.3273 39.4981C27.1752 39.4567 27.0129 39.4772 26.8758 39.5551C26.7387 39.6331 26.6379 39.7622 26.5955 39.9142C26.5579 40.0664 26.5801 40.2273 26.6574 40.3636C26.7347 40.4999 26.8612 40.6014 27.011 40.6472C27.1147 40.6873 26.9163 40.5961 27.0131 40.6489C27.0529 40.6706 27.0935 40.6903 27.1326 40.7135C27.1658 40.7332 27.1976 40.7547 27.2299 40.7759C27.341 40.8485 27.1757 40.7226 27.2467 40.7878C27.3083 40.8444 27.3693 40.8997 27.4252 40.9621C27.4464 40.9857 27.5293 41.0514 27.4649 41.0055C27.4156 40.9704 27.4459 40.9786 27.4649 41.0068C27.4793 41.0282 27.4945 41.049 27.5088 41.0705C27.5551 41.1408 27.5973 41.2138 27.635 41.2892C27.6438 41.3066 27.6518 41.3244 27.6607 41.3418C27.6773 41.3743 27.7015 41.3828 27.6623 41.3421C27.6249 41.3032 27.6487 41.3058 27.6621 41.3433C27.6709 41.3679 27.6805 41.3922 27.6891 41.4168C27.717 41.4972 27.7404 41.5791 27.7592 41.662C27.768 41.7004 27.775 41.739 27.7825 41.7776C27.809 41.9144 27.7786 41.6925 27.785 41.7941C27.7904 41.879 27.7966 41.963 27.7951 42.0482C27.7945 42.0871 27.7928 42.1261 27.7901 42.165C27.7887 42.1844 27.7865 42.2037 27.7853 42.2231C27.7791 42.3166 27.7789 42.189 27.792 42.1802C27.7648 42.2596 27.7467 42.3418 27.7382 42.4253C27.7275 42.4624 27.7149 42.4986 27.703 42.5352C27.6616 42.6631 27.7419 42.4655 27.6978 42.5529C27.6615 42.628 27.6209 42.7009 27.5762 42.7713C27.5568 42.8008 27.4837 42.8673 27.5435 42.821C27.6084 42.7707 27.5095 42.8573 27.4884 42.8796C27.4613 42.9082 27.4332 42.9358 27.404 42.9625C27.3854 42.9807 27.3657 42.9979 27.345 43.0138C27.3412 43.0119 27.4444 42.9448 27.3888 42.9804C27.3181 43.0255 27.2512 43.0738 27.1767 43.1131C27.168 43.1177 27.0727 43.1619 27.0731 43.1635C27.069 43.1474 27.1956 43.1188 27.1087 43.1469C27.0904 43.1528 27.0726 43.16 27.0544 43.1661C26.9753 43.1928 26.8945 43.2143 26.8127 43.2306C26.7939 43.2343 26.7741 43.2362 26.7556 43.241C26.6941 43.2569 26.8144 43.2317 26.818 43.2337C26.7726 43.2318 26.727 43.2358 26.6826 43.2457C26.5982 43.2506 26.5136 43.2506 26.4292 43.2457C26.4096 43.2446 26.3901 43.2427 26.3706 43.2415C26.3253 43.2389 26.292 43.2062 26.3523 43.2417C26.3989 43.2691 26.395 43.2491 26.3538 43.2415C26.3345 43.2379 26.3151 43.2349 26.2958 43.2313C26.2123 43.2156 26.1297 43.1953 26.0483 43.1705C26.0046 43.1572 25.9617 43.1417 25.9185 43.1265C25.8997 43.1211 25.8814 43.114 25.8638 43.1055C25.8635 43.1005 25.975 43.1588 25.9162 43.127C25.8418 43.0869 25.765 43.0533 25.6924 43.0095C25.6537 42.9861 25.6165 42.9606 25.5788 42.9356C25.5623 42.9256 25.5465 42.9143 25.5317 42.9018C25.533 42.8968 25.624 42.9812 25.5762 42.9356C25.5158 42.878 25.4512 42.8264 25.394 42.765C25.3809 42.7509 25.3685 42.7362 25.3555 42.7222L25.3428 42.7077C25.3106 42.6682 25.31 42.6684 25.341 42.7083C25.3726 42.7176 25.3711 42.7522 25.3412 42.7072C25.3306 42.6912 25.3192 42.6756 25.3086 42.6595C25.2603 42.5906 25.2191 42.5169 25.1856 42.4396C25.1885 42.4374 25.2371 42.583 25.1999 42.4731C25.1929 42.4523 25.185 42.4319 25.1781 42.4111C25.1645 42.3698 25.1524 42.3281 25.142 42.2859C25.1317 42.2441 25.1265 42.2009 25.1161 42.1593C25.0986 42.0891 25.1263 42.2147 25.1231 42.2115C25.1132 42.2017 25.1174 42.1409 25.1167 42.1263C25.1119 42.0328 25.1226 41.9421 25.1242 41.8491C25.1255 41.7772 25.1183 41.9052 25.1168 41.9015C25.1171 41.8799 25.121 41.8586 25.1281 41.8382C25.1388 41.7892 25.1489 41.7402 25.1621 41.6918C25.1772 41.6363 25.1945 41.5815 25.2142 41.5273C25.2215 41.5071 25.2305 41.4871 25.2373 41.4667C25.2624 41.3919 25.1878 41.557 25.2289 41.4896C25.2855 41.3967 25.3277 41.2963 25.3878 41.2046C25.402 41.1829 25.4886 41.0618 25.4426 41.123C25.3969 41.1838 25.4897 41.0684 25.5072 41.0489C25.5802 40.9675 25.6661 40.9007 25.7416 40.8227C25.7863 40.7766 25.7104 40.8455 25.7059 40.8487C25.7293 40.8319 25.7522 40.8145 25.7759 40.7982C25.8172 40.7697 25.8596 40.7427 25.9029 40.7173C25.9517 40.6887 26.0069 40.6673 26.0542 40.637C26.1101 40.6012 26.0115 40.6527 26.0097 40.6538C26.0352 40.6411 26.0619 40.6309 26.0894 40.6234C26.1355 40.607 26.3358 40.5204 26.3779 40.5475C26.376 40.5463 26.2257 40.5596 26.3472 40.5518C26.3759 40.55 26.4045 40.5472 26.4332 40.546C26.4914 40.5436 26.5493 40.545 26.6074 40.548C26.7649 40.547 26.9156 40.4839 27.027 40.3724C27.1383 40.2609 27.2013 40.1099 27.2024 39.9522C27.199 39.7952 27.1352 39.6456 27.0244 39.5346C26.9135 39.4236 26.7641 39.3597 26.6074 39.3564Z" fill="#3F3D56"/>
<path d="M34.9371 39.3564C34.4204 39.3532 33.9142 39.5023 33.4816 39.7853C33.049 40.0682 32.7091 40.4724 32.5044 40.9475C32.2753 41.4124 32.2046 41.9397 32.303 42.4487C32.4015 42.9577 32.6637 43.4204 33.0496 43.7661C33.4124 44.0751 33.8475 44.287 34.3142 44.382C34.781 44.477 35.2642 44.4519 35.7186 44.3091C36.1834 44.1465 36.5864 43.8437 36.8722 43.4423C37.158 43.0409 37.3125 42.5607 37.3145 42.0677C37.3353 41.5207 37.1873 40.9807 36.8907 40.5209C36.5942 40.0612 36.1634 39.704 35.6571 39.4981C35.5049 39.4567 35.3426 39.4772 35.2055 39.5551C35.0684 39.6331 34.9676 39.7622 34.9252 39.9142C34.8876 40.0664 34.9098 40.2273 34.9871 40.3636C35.0644 40.4999 35.191 40.6014 35.3407 40.6472C35.4444 40.6873 35.246 40.5961 35.3428 40.6489C35.3826 40.6706 35.4232 40.6903 35.4623 40.7135C35.4955 40.7332 35.5273 40.7547 35.5597 40.7759C35.6707 40.8485 35.5054 40.7226 35.5764 40.7878C35.638 40.8444 35.699 40.8997 35.7549 40.9621C35.7761 40.9857 35.859 41.0514 35.7946 41.0055C35.7453 40.9704 35.7756 40.9786 35.7946 41.0068C35.809 41.0282 35.8242 41.049 35.8384 41.0705C35.8848 41.1408 35.927 41.2138 35.9647 41.2892C35.9735 41.3066 35.9815 41.3244 35.9904 41.3418C36.007 41.3743 36.0312 41.3828 35.992 41.3421C35.9546 41.3032 35.9784 41.3058 35.9918 41.3433C36.0006 41.3679 36.0102 41.3922 36.0188 41.4168C36.0467 41.4972 36.0701 41.5791 36.0889 41.662C36.0976 41.7004 36.1047 41.739 36.1122 41.7776C36.1387 41.9144 36.1083 41.6925 36.1147 41.7941C36.1201 41.879 36.1263 41.963 36.1248 42.0482C36.1242 42.0871 36.1225 42.1261 36.1198 42.165C36.1184 42.1844 36.1162 42.2037 36.115 42.2231C36.1088 42.3166 36.1086 42.189 36.1217 42.1802C36.0945 42.2596 36.0764 42.3418 36.0679 42.4253C36.0572 42.4624 36.0446 42.4986 36.0327 42.5352C35.9913 42.6631 36.0716 42.4655 36.0275 42.5529C35.9912 42.628 35.9506 42.7009 35.9059 42.7713C35.8865 42.8008 35.8134 42.8673 35.8732 42.821C35.9381 42.7707 35.8392 42.8573 35.8181 42.8796C35.791 42.9082 35.7629 42.9358 35.7337 42.9625C35.7151 42.9807 35.6953 42.9979 35.6747 43.0138C35.6709 43.0119 35.7741 42.9448 35.7185 42.9804C35.6478 43.0255 35.5809 43.0738 35.5063 43.1131C35.4977 43.1177 35.4024 43.1619 35.4028 43.1635C35.3987 43.1474 35.5253 43.1188 35.4384 43.1469C35.4201 43.1528 35.4022 43.16 35.3841 43.1661C35.305 43.1928 35.2242 43.2143 35.1424 43.2306C35.1236 43.2343 35.1038 43.2362 35.0853 43.241C35.0238 43.2569 35.1441 43.2317 35.1477 43.2337C35.1023 43.2318 35.0567 43.2358 35.0123 43.2457C34.9279 43.2506 34.8433 43.2506 34.7589 43.2457C34.7393 43.2446 34.7198 43.2427 34.7003 43.2415C34.655 43.2389 34.6217 43.2062 34.682 43.2417C34.7286 43.2691 34.7247 43.2491 34.6835 43.2415C34.6642 43.2379 34.6448 43.2349 34.6255 43.2313C34.542 43.2156 34.4593 43.1953 34.378 43.1705C34.3343 43.1572 34.2914 43.1417 34.2482 43.1265C34.2294 43.1211 34.2111 43.114 34.1935 43.1055C34.1932 43.1005 34.3047 43.1588 34.2459 43.127C34.1715 43.0869 34.0947 43.0533 34.0221 43.0095C33.9834 42.9861 33.9462 42.9606 33.9085 42.9356C33.892 42.9256 33.8762 42.9143 33.8614 42.9018C33.8627 42.8968 33.9537 42.9812 33.9059 42.9356C33.8455 42.878 33.7809 42.8264 33.7237 42.765C33.7106 42.7509 33.6982 42.7362 33.6851 42.7222L33.6725 42.7077C33.6403 42.6682 33.6397 42.6684 33.6707 42.7083C33.7023 42.7176 33.7008 42.7522 33.6709 42.7072C33.6602 42.6912 33.6489 42.6756 33.6383 42.6595C33.59 42.5906 33.5487 42.5169 33.5153 42.4396C33.5182 42.4374 33.5668 42.583 33.5296 42.4731C33.5226 42.4523 33.5147 42.4319 33.5078 42.4111C33.4941 42.3698 33.4821 42.3281 33.4717 42.2859C33.4614 42.2441 33.4562 42.2009 33.4458 42.1593C33.4283 42.0891 33.456 42.2147 33.4528 42.2115C33.4429 42.2017 33.4471 42.1409 33.4464 42.1263C33.4416 42.0328 33.4523 41.9421 33.4539 41.8491C33.4552 41.7772 33.448 41.9052 33.4465 41.9015C33.4469 41.8799 33.4507 41.8586 33.4578 41.8382C33.4686 41.7892 33.4786 41.7402 33.4918 41.6918C33.5069 41.6363 33.5242 41.5815 33.5439 41.5273C33.5512 41.5071 33.5602 41.4871 33.567 41.4667C33.5921 41.3919 33.5175 41.557 33.5586 41.4896C33.6152 41.3967 33.6574 41.2963 33.7175 41.2046C33.7317 41.1829 33.8183 41.0618 33.7724 41.123C33.7266 41.1838 33.8194 41.0684 33.837 41.0489C33.9099 40.9675 33.9958 40.9007 34.0713 40.8227C34.1161 40.7766 34.0401 40.8455 34.0356 40.8487C34.059 40.8319 34.0819 40.8145 34.1056 40.7982C34.1469 40.7697 34.1893 40.7427 34.2326 40.7173C34.2814 40.6887 34.3366 40.6673 34.3839 40.637C34.4398 40.6012 34.3412 40.6527 34.3394 40.6538C34.3649 40.6411 34.3916 40.6309 34.4191 40.6234C34.4652 40.607 34.6656 40.5204 34.7076 40.5475C34.7057 40.5463 34.5554 40.5596 34.6769 40.5518C34.7056 40.55 34.7342 40.5472 34.7629 40.546C34.8211 40.5436 34.879 40.545 34.9371 40.548C35.0946 40.547 35.2453 40.4839 35.3567 40.3724C35.468 40.2609 35.531 40.1099 35.5321 39.9522C35.5287 39.7952 35.4649 39.6456 35.3541 39.5346C35.2432 39.4236 35.0938 39.3597 34.9371 39.3564Z" fill="#3F3D56"/>
<path d="M17.5532 70.6502L18.0838 90.9896L18.6144 111.329C18.6814 113.896 18.3193 117.396 20.9188 118.899C22.0032 119.527 23.2998 119.664 24.5288 119.698C26.1602 119.744 27.7969 119.71 29.4289 119.712L49.7575 119.733C52.4285 119.736 55.3621 119.658 57.2758 117.504C58.8731 115.706 59.3258 113.213 59.4859 110.887C59.6973 107.816 59.5958 104.708 59.6233 101.632L59.7146 91.41L59.8058 81.1881C59.8335 78.0827 59.9801 74.9521 59.8442 71.8487C59.7404 69.4808 59.3407 66.9523 57.7554 65.0915C55.9495 62.9717 53.094 62.6856 50.4896 62.6021C43.754 62.3862 37.0171 62.2039 30.2809 62.0049C28.7312 61.9592 27.177 61.8759 25.6263 61.8964C24.2474 61.8696 22.8741 62.0803 21.5663 62.5192C19.3884 63.3357 17.6871 65.2945 17.7628 67.7238C17.7677 68.2326 17.8799 68.7347 18.0919 69.1971C18.304 69.6596 18.6112 70.0719 18.9934 70.4073C19.5747 70.8997 20.4205 70.0608 19.8348 69.5646C18.2473 68.2197 19.0161 65.6997 20.4038 64.5061C22.4145 62.7767 25.5667 63.0574 28.0185 63.1298L47.1009 63.6934C48.5808 63.7371 50.0647 63.7518 51.5429 63.8389C52.8624 63.9167 54.2406 64.0884 55.4216 64.7247C57.4638 65.825 58.2608 68.0827 58.5292 70.2662C58.8668 73.0135 58.6635 75.8482 58.6389 78.6078L58.552 88.3335L58.3802 107.586C58.3592 109.928 58.3954 112.345 57.6086 114.584C57.2704 115.623 56.6512 116.547 55.8198 117.255C54.7757 118.014 53.528 118.441 52.2385 118.481C50.7901 118.598 49.3251 118.541 47.8734 118.54L42.9152 118.534L33.3955 118.524L28.4373 118.519C26.9885 118.517 25.5292 118.568 24.0822 118.489C22.9716 118.427 21.7323 118.235 20.9141 117.408C19.9975 116.481 19.9124 115.05 19.8704 113.821C19.4322 101.023 19.2013 88.214 18.8674 75.4126L18.7431 70.6501C18.7232 69.8848 17.5331 69.8818 17.5532 70.6502Z" fill="#3F3D56"/>
<path d="M92.9177 70.6502L93.4483 90.9896L93.9789 111.329C94.0459 113.896 93.6838 117.396 96.2833 118.899C97.3677 119.527 98.6643 119.664 99.8933 119.698C101.525 119.744 103.161 119.71 104.793 119.712L125.122 119.733C127.793 119.736 130.727 119.658 132.64 117.504C134.238 115.706 134.69 113.213 134.85 110.887C135.062 107.816 134.96 104.708 134.988 101.632L135.079 91.41L135.17 81.1881C135.198 78.0827 135.345 74.9521 135.209 71.8487C135.105 69.4808 134.705 66.9523 133.12 65.0915C131.314 62.9717 128.459 62.6856 125.854 62.6021C119.118 62.3862 112.382 62.2039 105.645 62.0049C104.096 61.9592 102.541 61.8759 100.991 61.8964C99.6119 61.8696 98.2386 62.0803 96.9308 62.5192C94.7529 63.3357 93.0516 65.2945 93.1273 67.7238C93.1322 68.2326 93.2443 68.7347 93.4564 69.1971C93.6685 69.6596 93.9757 70.0719 94.3579 70.4073C94.9392 70.8997 95.785 70.0608 95.1993 69.5646C93.6118 68.2197 94.3806 65.6997 95.7683 64.5061C97.779 62.7767 100.931 63.0574 103.383 63.1298L122.465 63.6934C123.945 63.7371 125.429 63.7518 126.907 63.8389C128.227 63.9167 129.605 64.0884 130.786 64.7247C132.828 65.825 133.625 68.0827 133.894 70.2662C134.231 73.0135 134.028 75.8482 134.003 78.6078L133.917 88.3335L133.745 107.586C133.724 109.928 133.76 112.345 132.973 114.584C132.635 115.623 132.016 116.547 131.184 117.255C130.14 118.014 128.893 118.441 127.603 118.481C126.155 118.598 124.69 118.541 123.238 118.54L118.28 118.534L108.76 118.524L103.802 118.519C102.353 118.517 100.894 118.568 99.4467 118.489C98.3361 118.427 97.0968 118.235 96.2786 117.408C95.362 116.481 95.2769 115.05 95.2349 113.821C94.7967 101.023 94.5658 88.214 94.2319 75.4126L94.1076 70.6501C94.0877 69.8848 92.8976 69.8818 92.9177 70.6502Z" fill="#3F3D56"/>
<path d="M38.0932 124.137C37.6772 123.736 37.1653 123.449 36.6065 123.303C36.0477 123.158 35.461 123.158 34.9026 123.306C34.3479 123.458 33.8337 123.732 33.3972 124.107C32.9607 124.482 32.6128 124.95 32.3784 125.476C31.2542 127.873 32.2614 130.668 33.8148 132.626C35.2583 134.446 37.6034 135.645 39.8879 134.689C40.9288 134.243 41.8033 133.48 42.3881 132.509C42.973 131.538 43.2386 130.408 43.1476 129.277C42.8596 126.615 40.6992 124.459 38.1622 123.809C37.42 123.618 37.1033 124.767 37.8459 124.958C38.7278 125.172 39.5441 125.598 40.224 126.2C40.9038 126.802 41.4265 127.561 41.7466 128.411C42.0275 129.243 42.0396 130.142 41.7813 130.981C41.523 131.82 41.0074 132.557 40.3075 133.086C36.7617 135.812 32.7058 130.599 33.1034 127.188C33.1458 126.685 33.3033 126.198 33.5636 125.765C33.824 125.333 34.1802 124.966 34.6047 124.693C35.018 124.449 35.4987 124.346 35.9756 124.397C36.4524 124.449 36.8999 124.653 37.2518 124.979C37.3646 125.085 37.5139 125.142 37.6683 125.14C37.8227 125.137 37.97 125.075 38.0792 124.965C38.1884 124.856 38.2509 124.708 38.2535 124.554C38.2561 124.399 38.1986 124.25 38.0932 124.137Z" fill="#3F3D56"/>
<path d="M110.791 82.7802C109.402 82.3019 107.79 81.827 106.353 82.3877C104.998 82.9166 104.251 84.2115 104.104 85.617C103.941 87.1843 104.606 88.6792 105.311 90.0361C106.16 91.6684 107.035 93.2873 107.897 94.9123L110.88 100.533C110.948 100.643 111.049 100.728 111.169 100.775C111.289 100.823 111.421 100.83 111.546 100.796C111.671 100.763 111.781 100.69 111.861 100.588C111.94 100.486 111.985 100.361 111.988 100.232C111.82 98.3476 112.119 96.4505 112.858 94.7092C113.621 92.9492 114.867 91.4627 115.753 89.7704C116.569 88.2125 117.112 86.4251 116.68 84.6692C116.331 83.249 115.299 81.8671 113.813 81.5365C113.062 81.3462 112.268 81.4304 111.573 81.774C110.879 82.1176 110.329 82.6981 110.024 83.4111C109.743 84.1248 110.893 84.4344 111.171 83.7279C111.567 82.7216 112.953 82.4131 113.876 82.7982C115.079 83.3 115.65 84.74 115.648 85.9639C115.647 87.6372 114.79 89.1663 113.922 90.5407C113.045 91.9288 112.123 93.2714 111.539 94.8185C110.896 96.5462 110.643 98.395 110.798 100.232L111.907 99.9315C109.971 96.2819 107.927 92.669 106.099 88.9637C105.396 87.5388 104.764 85.6171 105.842 84.1957C106.947 82.7386 109.056 83.4407 110.474 83.9293C111.2 84.1792 111.512 83.0286 110.791 82.7802Z" fill="#3F3D56"/>
<path d="M35.0544 127.466L36.8066 130.869C36.8673 130.968 36.9553 131.047 37.06 131.097C37.1646 131.147 37.2814 131.166 37.3964 131.151C37.5113 131.136 37.6194 131.088 37.7077 131.012C37.7961 130.937 37.8608 130.838 37.8941 130.727C38.3506 128.371 39.4442 126.186 41.0557 124.409C41.5713 123.844 40.7321 122.999 40.2143 123.567C38.4561 125.488 37.2568 127.855 36.7466 130.41L37.8341 130.268L36.0819 126.864C35.7309 126.183 34.7037 126.785 35.0544 127.466Z" fill="#3F3D56"/>
<path d="M54.9295 111.754L41.0849 124C41.0069 124.069 40.9054 124.106 40.8013 124.102C40.6972 124.098 40.5986 124.055 40.5256 123.98C40.4526 123.906 40.4109 123.806 40.4091 123.702C40.4073 123.598 40.4455 123.497 40.5158 123.42L53.4154 109.316L54.9295 111.754Z" fill="#3F3D56"/>
<path d="M73.3864 260.784H78.8277L81.4175 239.765H73.3864V260.784Z" fill="#FFB6B6"/>
<path d="M70.5143 270.225H74.4166L75.1132 266.536L76.8971 270.225H87.247C87.7431 270.225 88.2263 270.066 88.6259 269.772C89.0255 269.478 89.3207 269.063 89.4683 268.589C89.6159 268.114 89.6083 267.605 89.4465 267.135C89.2847 266.666 88.9773 266.26 88.569 265.978L80.3039 260.262V256.532L71.6105 257.051L70.5143 270.225Z" fill="#2F2E41"/>
<path d="M119.996 260.784H125.437L128.027 239.765H119.996V260.784Z" fill="#FFB6B6"/>
<path d="M117.124 270.225H121.026L121.722 266.536L123.506 270.225H133.856C134.352 270.225 134.836 270.066 135.235 269.772C135.635 269.478 135.93 269.063 136.078 268.589C136.225 268.114 136.218 267.605 136.056 267.135C135.894 266.666 135.587 266.26 135.178 265.978L126.913 260.262V256.532L118.22 257.051L117.124 270.225Z" fill="#2F2E41"/>
<path d="M104.269 149.373L76.671 146.302C76.671 146.302 64.4053 162.27 69.0049 176.088V191.476L72.378 251.629L80.8106 252.09L83.2637 224.76L85.5635 213.859L87.5006 172.326L97.3692 184.226L98.2891 188.832L101.356 190.982L107.028 198.788L118.681 246.716L128.95 246.87C128.95 246.87 123.434 197.123 122.82 197.123C122.207 197.123 106.875 163.652 106.875 163.652V161.881L106.262 158.432C106.262 158.432 107.795 157.203 107.182 156.589C106.568 155.975 105.955 154.132 105.955 154.132L104.269 149.373Z" fill="#2F2E41"/>
<path d="M94.3028 106.536L99.8224 112.677L107.488 115.441L103.195 140.621L104.619 147.862L106.722 155.821C98.6205 160.309 88.9973 154.111 80.1566 151.359L71.4581 155.207L71.9181 144.613L72.154 117.921C72.163 116.895 72.3824 115.883 72.7985 114.946C73.2146 114.01 73.8185 113.168 74.5727 112.475C75.327 111.782 76.2154 111.251 77.183 110.916C78.1506 110.581 79.1766 110.449 80.1974 110.528L86.0235 106.229L94.3028 106.536Z" fill="#6C63FF"/>
<path d="M44.232 117.8C44.2756 118.255 44.4183 118.696 44.6503 119.09C44.8823 119.485 45.1977 119.823 45.5745 120.082C45.9513 120.341 46.3803 120.515 46.8312 120.59C47.282 120.665 47.7439 120.64 48.1841 120.517L54.5121 129.662L56.6635 124.297L50.3245 116.435C50.0692 115.708 49.5565 115.1 48.8835 114.726C48.2105 114.353 47.424 114.239 46.673 114.407C45.9221 114.576 45.2588 115.014 44.8089 115.639C44.359 116.264 44.1537 117.033 44.232 117.8Z" fill="#FFB8B8"/>
<path d="M77.3649 110.659C77.3649 110.659 69.1283 110.293 70.0506 126.685L66.5467 133.886L59.4991 127.299L59.4672 125.203L53.5072 118.531L48.7231 123.827L51.9076 128.703L52.5215 131.426L54.4609 132.612L59.5213 140.36L61.8623 142.668C61.8623 142.668 64.8318 145.631 68.1905 145.185C69.0866 145.068 69.9589 144.811 70.7754 144.423C72.3731 143.662 73.9516 142.296 75.2788 139.984C78.0602 135.21 80.5538 130.273 82.7462 125.2L77.3649 110.659Z" fill="#6C63FF"/>
<path d="M113.422 92.1528C113.297 92.5928 113.269 93.0551 113.341 93.5071C113.413 93.9591 113.583 94.3899 113.839 94.7689C114.095 95.148 114.431 95.4662 114.823 95.7012C115.216 95.9361 115.655 96.0821 116.109 96.1288L118.662 106.957L122.623 102.751L119.591 93.1125C119.619 92.3424 119.364 91.5888 118.874 90.9946C118.384 90.4005 117.693 90.0069 116.933 89.8886C116.172 89.7703 115.395 89.9355 114.748 90.3528C114.101 90.77 113.629 91.4105 113.422 92.1528Z" fill="#FFB8B8"/>
<path d="M95.8934 113.981C95.8934 113.981 100.249 106.971 113.229 116.999L121.141 118.175L119.7 108.63L117.991 107.419L115.865 98.724L122.932 97.7661L125.148 103.153L127.044 105.199L126.925 107.472L130.446 116.032L131.023 119.27C131.023 119.27 131.785 123.399 129.519 125.921C128.916 126.595 128.212 127.17 127.431 127.625C125.9 128.515 123.883 129.047 121.228 128.836C115.723 128.435 110.247 127.704 104.829 126.647L95.8934 113.981Z" fill="#6C63FF"/>
<path d="M95.2787 103.975C100.426 101.158 102.318 94.6947 99.5039 89.5401C96.6902 84.3855 90.2365 82.4911 85.0892 85.3088C79.942 88.1265 78.0503 94.5894 80.864 99.744C83.6777 104.899 90.1314 106.793 95.2787 103.975Z" fill="#FFB6B6"/>
<path d="M104.159 90.972C104.127 90.9839 104.1 90.9958 104.068 91.0077C104.007 91.0344 103.945 91.0569 103.881 91.0753C103.476 91.2232 103.054 91.3193 102.624 91.3613C102.441 91.3806 102.257 91.3899 102.073 91.3891C101.837 91.3893 101.601 91.3734 101.367 91.3414C101.106 91.3087 100.849 91.2556 100.597 91.1825C100.478 91.1501 100.36 91.1117 100.244 91.0673C99.4564 90.7848 98.7448 90.3232 98.1652 89.7187C97.5857 89.1143 97.1541 88.3834 96.9043 87.5837V87.5797C96.8777 87.5015 96.8552 87.422 96.8369 87.3414C96.7201 86.894 96.6615 86.4334 96.6624 85.971V85.963C96.6622 84.8354 97.0161 83.7363 97.6738 82.821C98.0705 82.2609 98.5273 82.1683 98.2728 81.5261C97.4609 79.4774 100.808 77.8128 102.779 78.7177C102.85 78.7111 102.921 78.7085 102.993 78.7098C104.322 78.7098 104.81 80.676 105.599 81.7843L105.576 81.7917C105.375 81.8615 105.201 81.9924 105.078 82.1661C104.956 82.3398 104.89 82.5476 104.891 82.7605C104.892 82.9733 104.959 83.1805 105.083 83.3532C105.208 83.5259 105.383 83.6553 105.584 83.7235C106.111 83.8969 106.644 84.0502 107.182 84.1835C108.952 86.288 106.901 92.4266 104.159 90.972Z" fill="#2F2E41"/>
<path d="M103.168 96.6006C102.577 98.8369 101.49 101.018 99.6928 102.468C97.892 103.917 89.4314 107.341 88.7253 104.39C89.1973 106.452 88.9078 107.238 88.1383 107.973C88.0074 107.794 87.8685 107.623 87.7257 107.457C87.1998 106.847 86.5682 106.337 85.8615 105.951C85.84 107.196 85.9262 108.44 86.1193 109.669C85.8022 109.961 85.5004 110.268 85.2149 110.591C83.8583 106.507 80.8745 101.613 83.0531 97.9034C83.9178 96.4313 83.2004 96.2275 82.4383 96.0564C81.1079 95.7576 80.3876 90.2848 80.0742 88.9541C79.6855 87.2858 79.5348 85.3672 80.5701 84.0008C81.6053 82.6343 84.2153 82.5827 84.7389 84.2153L85.8416 82.7217C87.2696 79.5956 91.0378 80.2311 94.4451 80.6443C97.8523 81.0534 100.855 83.4605 102.382 86.539C103.905 89.6174 104.044 93.2758 103.168 96.6006Z" fill="#2F2E41"/>
<path d="M97.8306 82.2907C97.7534 84.1777 98.2318 86.0459 99.2062 87.663C100.181 89.28 101.608 90.5746 103.311 91.3858C104.003 91.7018 104.608 90.675 103.912 90.3569C102.39 89.6492 101.113 88.5046 100.242 87.0684C99.3708 85.6322 98.9458 83.9692 99.0205 82.2907C99.0621 81.5243 97.872 81.5267 97.8306 82.2907Z" fill="#FF6584"/>
<path d="M51.1277 263.065C50.9161 263.075 50.7065 263.019 50.5274 262.906C50.3484 262.792 50.2085 262.626 50.1268 262.431C50.045 262.235 50.0253 262.019 50.0704 261.811C50.1155 261.604 50.2231 261.415 50.3787 261.271L50.4495 260.989C50.4402 260.967 50.4308 260.944 50.4214 260.922C49.4699 258.65 43.3982 264.983 43.1357 267.119C43.0201 268.063 43.0689 269.019 43.2799 269.947C41.3132 265.65 40.2919 260.981 40.2853 256.255C40.2849 255.069 40.3507 253.884 40.4824 252.705C40.5913 251.739 40.7423 250.78 40.9355 249.827C41.9896 244.659 44.2528 239.815 47.5393 235.693C49.4188 235.798 51.066 235.512 51.2251 231.864C51.2534 231.215 51.734 230.653 51.8399 230.014C51.6604 230.037 51.4781 230.052 51.2986 230.064C51.2427 230.067 51.1839 230.07 51.128 230.073L51.1069 230.074C50.9097 230.083 50.7142 230.034 50.5438 229.934C50.3734 229.834 50.2355 229.687 50.1466 229.511C50.0578 229.334 50.0218 229.136 50.0429 228.939C50.0641 228.743 50.1415 228.557 50.2659 228.403C50.3434 228.308 50.4209 228.212 50.4985 228.117C50.6162 227.969 50.7368 227.825 50.8544 227.678C50.868 227.664 50.8808 227.649 50.8927 227.634C51.028 227.466 51.1633 227.301 51.2986 227.133C51.0516 226.749 50.7194 226.427 50.3279 226.193C48.9718 225.398 47.101 225.949 46.1214 227.177C45.1389 228.405 44.9536 230.129 45.2948 231.663C45.6304 232.969 46.1855 234.209 46.9363 235.328C46.8627 235.422 46.7862 235.514 46.7127 235.608C45.3684 237.339 44.1967 239.198 43.2145 241.158C43.4924 238.984 40.0942 231.134 38.78 229.471C37.2015 227.474 33.9646 228.345 33.6864 230.877C33.6838 230.902 33.6811 230.926 33.6786 230.951C33.8738 231.061 34.0648 231.178 34.2518 231.302C34.4866 231.459 34.6686 231.683 34.7739 231.946C34.8792 232.208 34.9028 232.497 34.8417 232.773C34.7806 233.049 34.6376 233.3 34.4315 233.494C34.2254 233.687 33.9657 233.813 33.6866 233.857L33.658 233.861C31.0451 237.597 39.4213 247.321 41.5179 245.137C40.531 247.938 39.912 250.855 39.6764 253.816C39.543 255.562 39.5509 257.317 39.7 259.062L39.6911 259C39.2253 255.199 31.2335 249.547 28.8997 250.018C27.5553 250.289 26.2311 250.227 26.4353 251.585C26.4386 251.607 26.4419 251.629 26.4452 251.65C26.8075 251.798 27.1602 251.968 27.5012 252.16C27.6964 252.27 27.8875 252.387 28.0745 252.511C28.3093 252.668 28.4913 252.893 28.5966 253.155C28.7018 253.418 28.7255 253.706 28.6644 253.982C28.6033 254.258 28.4603 254.51 28.2542 254.703C28.048 254.896 27.7884 255.023 27.5092 255.066L27.4806 255.071C27.46 255.073 27.4424 255.076 27.4218 255.079C26.2325 259.177 35.0526 265.791 40.4147 263.687H40.4177C40.9491 265.999 41.719 268.25 42.7151 270.403H50.9221C50.9515 270.312 50.978 270.218 51.0045 270.126C50.2448 270.174 49.4821 270.129 48.7335 269.991C49.3424 269.243 49.9514 268.488 50.5603 267.74C50.5738 267.726 50.5866 267.711 50.5985 267.696C50.9074 267.313 51.2192 266.933 51.528 266.55L51.5282 266.55C51.5447 265.376 51.4099 264.205 51.1277 263.065ZM41.7296 244.551L41.734 244.545L41.7296 244.557V244.551ZM39.9118 260.962L39.8412 260.803C39.8441 260.688 39.8441 260.573 39.8412 260.455C39.8412 260.423 39.8353 260.391 39.8353 260.358C39.8618 260.561 39.8853 260.765 39.9147 260.968L39.9118 260.962Z" fill="#6C63FF"/>
<path d="M142.348 270.206H26.4781V271H142.348V270.206Z" fill="#CCCCCC"/>
<path d="M295.468 53.7419L295.458 53.7504C294.554 52.8297 293.332 52.2925 292.043 52.25C290.754 52.2076 289.499 52.6632 288.536 53.5224C287.574 54.3816 286.979 55.5787 286.874 56.8655C286.768 58.1523 287.162 59.4304 287.972 60.4348L287.962 60.4433L294.654 67.9597L302.16 61.2582C302.653 60.8184 303.055 60.2855 303.343 59.6899C303.631 59.0944 303.799 58.4479 303.837 57.7874C303.875 57.1269 303.782 56.4654 303.565 55.8407C303.348 55.2159 303.01 54.6402 302.57 54.1464C302.13 53.6526 301.598 53.2504 301.003 52.9627C300.408 52.6751 299.762 52.5078 299.103 52.4702C298.443 52.4326 297.783 52.5256 297.159 52.7438C296.535 52.962 295.961 53.3012 295.468 53.7419Z" fill="#6C63FF"/>
</g>
<defs>
<clipPath id="clip0_69_128">
<rect width="343" height="271" fill="white"/>
</clipPath>
</defs>
</svg>
